# Blender 4.4.3
# www.blender.org
mtllib alt_panels.mtl
g Cube.011_Mesh
v 2.576020 -0.018692 11.997517
v 2.576020 1.171877 7.554258
v 2.376020 -0.018692 11.997517
v 2.376020 1.171877 7.554258
v 2.576020 -0.211877 11.945753
v 2.576020 0.978692 7.502494
v 2.376020 -0.211877 11.945753
v 2.376020 0.978692 7.502494
v 12.329243 0.037966 -11.748144
v 12.329243 -0.162035 -11.748140
v 12.329243 0.037965 12.251858
v 12.329243 -0.162034 12.251858
v 10.329242 0.037966 -11.748144
v 10.329242 -0.162035 -11.748140
v 10.329242 0.037965 12.251858
v 10.329242 -0.162034 12.251858
v 10.329243 1.186874 -6.948143
v 10.329243 1.659420 -2.148143
v 10.329243 1.659420 2.651858
v 10.329242 1.186874 7.451858
v 12.329243 1.386874 -6.948141
v 12.329242 1.859420 -2.148143
v 12.329243 1.859420 2.651858
v 12.329243 1.386874 7.451858
v 10.329242 1.386874 7.451858
v 10.329243 1.859420 2.651858
v 10.329243 1.859420 -2.148142
v 10.329243 1.386874 -6.948141
v 12.329243 1.186874 7.451858
v 12.329243 1.659420 2.651858
v 12.329242 1.659420 -2.148143
v 12.329243 1.186874 -6.948143
v 10.329243 0.037966 -11.748144
v 10.329243 -0.162035 -11.748140
v 10.329243 0.037965 12.251858
v 10.329243 -0.162034 12.251858
v 8.329243 0.037966 -11.748144
v 8.329243 -0.162035 -11.748140
v 8.329242 0.037965 12.251858
v 8.329242 -0.162034 12.251858
v 8.329243 1.186874 -6.948143
v 8.329243 1.659420 -2.148143
v 8.329243 1.659420 2.651858
v 8.329243 1.186874 7.451858
v 10.329243 1.386874 -6.948141
v 10.329243 1.859420 -2.148142
v 10.329243 1.859420 2.651858
v 10.329243 1.386874 7.451858
v 8.329243 1.386874 7.451858
v 8.329243 1.859420 2.651858
v 8.329243 1.859420 -2.148142
v 8.329243 1.386874 -6.948141
v 10.329243 1.186874 7.451858
v 10.329243 1.659420 2.651858
v 10.329243 1.659420 -2.148143
v 10.329243 1.186874 -6.948143
v 0.329244 0.037966 -11.748144
v 0.329244 -0.162035 -11.748140
v 0.329243 0.037965 12.251859
v 0.329243 -0.162035 12.251858
v -1.670757 0.037966 -11.748144
v -1.670757 -0.162034 -11.748144
v -1.670756 0.037966 12.251858
v -1.670756 -0.162034 12.251857
v -1.670756 1.186874 -6.948143
v -1.670756 1.659420 -2.148143
v -1.670756 1.659420 2.651858
v -1.670756 1.186874 7.451858
v 0.329243 1.386874 -6.948143
v 0.329244 1.859420 -2.148143
v 0.329244 1.859420 2.651858
v 0.329244 1.386874 7.451858
v -1.670756 1.386874 7.451858
v -1.670756 1.859420 2.651858
v -1.670756 1.859420 -2.148143
v -1.670756 1.386874 -6.948143
v 0.329244 1.186874 7.451858
v 0.329244 1.659420 2.651858
v 0.329244 1.659420 -2.148143
v 0.329243 1.186874 -6.948143
v -1.670757 0.037966 -11.748144
v -1.670757 -0.162034 -11.748144
v -1.670756 0.037966 12.251858
v -1.670756 -0.162034 12.251857
v -3.670757 0.037966 -11.748144
v -3.670757 -0.162034 -11.748144
v -3.670756 0.037966 12.251858
v -3.670756 -0.162034 12.251857
v -3.670756 1.186874 -6.948143
v -3.670756 1.659420 -2.148143
v -3.670756 1.659420 2.651858
v -3.670756 1.186874 7.451858
v -1.670756 1.386874 -6.948143
v -1.670756 1.859420 -2.148142
v -1.670756 1.859420 2.651858
v -1.670756 1.386874 7.451858
v -3.670756 1.386874 7.451858
v -3.670756 1.859420 2.651858
v -3.670756 1.859420 -2.148142
v -3.670756 1.386874 -6.948143
v -1.670756 1.186874 7.451858
v -1.670756 1.659420 2.651858
v -1.670756 1.659420 -2.148143
v -1.670756 1.186874 -6.948143
v 4.329243 0.037966 -11.748144
v 4.329243 -0.162035 -11.748140
v 4.329243 0.037965 12.251858
v 4.329243 -0.162034 12.251858
v 2.329242 0.037966 -11.748144
v 2.329242 -0.162035 -11.748140
v 2.329242 0.037965 12.251859
v 2.329242 -0.162035 12.251858
v 2.329242 1.186874 -6.948143
v 2.329242 1.659420 -2.148143
v 2.329242 1.659420 2.651858
v 2.329243 1.186874 7.451858
v 4.329243 1.386875 -6.948143
v 4.329243 1.859420 -2.148142
v 4.329243 1.859420 2.651858
v 4.329244 1.386875 7.451858
v 2.329243 1.386874 7.451858
v 2.329242 1.859420 2.651858
v 2.329242 1.859420 -2.148142
v 2.329242 1.386874 -6.948143
v 4.329244 1.186874 7.451857
v 4.329243 1.659420 2.651858
v 4.329243 1.659420 -2.148143
v 4.329243 1.186874 -6.948143
v 2.329244 0.037966 -11.748144
v 2.329244 -0.162035 -11.748140
v 2.329244 0.037965 12.251859
v 2.329244 -0.162035 12.251858
v 0.329243 0.037966 -11.748144
v 0.329243 -0.162035 -11.748140
v 0.329243 0.037965 12.251859
v 0.329243 -0.162035 12.251858
v 0.329243 1.186874 -6.948143
v 0.329243 1.659420 -2.148143
v 0.329243 1.659420 2.651858
v 0.329243 1.186874 7.451858
v 2.329244 1.386874 -6.948143
v 2.329244 1.859420 -2.148142
v 2.329244 1.859420 2.651858
v 2.329244 1.386874 7.451858
v 0.329243 1.386874 7.451858
v 0.329243 1.859420 2.651858
v 0.329243 1.859420 -2.148142
v 0.329243 1.386874 -6.948143
v 2.329244 1.186874 7.451858
v 2.329244 1.659420 2.651858
v 2.329244 1.659420 -2.148143
v 2.329244 1.186874 -6.948143
v 8.329244 0.037966 -11.748144
v 8.329244 -0.162035 -11.748140
v 8.329244 0.037965 12.251858
v 8.329244 -0.162034 12.251858
v 6.329244 0.037966 -11.748144
v 6.329244 -0.162035 -11.748140
v 6.329244 0.037965 12.251858
v 6.329244 -0.162034 12.251858
v 6.329244 1.186874 -6.948143
v 6.329244 1.659420 -2.148143
v 6.329244 1.659420 2.651858
v 6.329244 1.186874 7.451858
v 8.329244 1.386874 -6.948141
v 8.329244 1.859420 -2.148142
v 8.329244 1.859420 2.651858
v 8.329244 1.386874 7.451858
v 6.329244 1.386874 7.451858
v 6.329244 1.859420 2.651857
v 6.329244 1.859420 -2.148142
v 6.329244 1.386874 -6.948141
v 8.329244 1.186874 7.451858
v 8.329244 1.659420 2.651858
v 8.329244 1.659420 -2.148143
v 8.329244 1.186874 -6.948143
v 6.329244 0.037966 -11.748144
v 6.329244 -0.162035 -11.748140
v 6.329244 0.037965 12.251858
v 6.329244 -0.162034 12.251858
v 4.329243 0.037966 -11.748144
v 4.329243 -0.162035 -11.748140
v 4.329243 0.037965 12.251858
v 4.329243 -0.162034 12.251858
v 4.329243 1.186874 -6.948143
v 4.329243 1.659420 -2.148143
v 4.329243 1.659420 2.651858
v 4.329244 1.186874 7.451857
v 6.329244 1.386874 -6.948141
v 6.329244 1.859420 -2.148142
v 6.329244 1.859420 2.651857
v 6.329244 1.386874 7.451858
v 4.329244 1.386875 7.451858
v 4.329243 1.859420 2.651858
v 4.329243 1.859420 -2.148142
v 4.329243 1.386874 -6.948143
v 6.329244 1.186874 7.451858
v 6.329244 1.659420 2.651858
v 6.329244 1.659420 -2.148143
v 6.329244 1.186874 -6.948143
v 0.000000 0.000000 0.000000
v 0.000000 0.000000 0.000000
v 0.000000 0.000000 0.000000
v 0.000000 0.000000 0.000000
v 0.000000 0.000000 0.000000
v 0.000000 0.000000 0.000000
v 0.000000 0.000000 0.000000
v 0.000000 0.000000 0.000000
v -3.690005 -0.100000 12.100000
v 12.309996 -0.100000 12.100000
v -3.690005 -0.100000 11.900001
v 12.309996 -0.100000 11.900001
v -3.690005 -0.300000 12.100000
v 12.309996 -0.300000 12.100000
v -3.690005 -0.300000 11.900001
v 12.309996 -0.300000 11.900001
v -3.690000 1.196361 7.487380
v 12.309999 1.196360 7.487380
v -3.690000 1.196361 7.287380
v 12.309999 1.196360 7.287380
v -3.690000 0.996361 7.487380
v 12.309999 0.996360 7.487380
v -3.690000 0.996361 7.287380
v 12.309999 0.996360 7.287380
v -3.690000 -0.099999 -11.499998
v 12.309999 -0.099999 -11.499998
v -3.690000 -0.099999 -11.699999
v 12.309999 -0.100000 -11.699999
v -3.690000 -0.299999 -11.499998
v 12.309999 -0.300000 -11.499998
v -3.690000 -0.300000 -11.699999
v 12.309999 -0.300000 -11.699999
v -3.690000 1.186360 -6.799999
v 12.309999 1.186360 -6.799999
v -3.690000 1.186361 -7.000000
v 12.309999 1.186360 -7.000000
v -3.690000 0.986361 -6.799999
v 12.309999 0.986360 -6.799999
v -3.690000 0.986361 -7.000000
v 12.309999 0.986360 -6.999998
v -3.690000 1.670001 2.830331
v 12.309999 1.670000 2.830331
v -3.690000 1.670001 2.630331
v 12.309999 1.670000 2.630331
v -3.690000 1.470001 2.830331
v 12.309999 1.470000 2.830331
v -3.690000 1.470001 2.630331
v 12.309999 1.470000 2.630331
v -3.690000 1.670001 -2.630328
v 12.309999 1.670000 -2.630328
v -3.690000 1.670001 -2.830329
v 12.309999 1.670000 -2.830329
v -3.690000 1.470001 -2.630329
v 12.309999 1.470000 -2.630329
v -3.690000 1.470001 -2.830330
v 12.309999 1.470000 -2.830329
v 2.576020 1.670000 2.600271
v 2.576020 1.670000 -2.599729
v 2.376020 1.670000 2.600271
v 2.376020 1.670000 -2.599729
v 2.576020 1.470000 2.600270
v 2.576020 1.470000 -2.599729
v 2.376020 1.470000 2.600270
v 2.376020 1.470000 -2.599729
v 2.576020 1.608509 -2.821408
v 2.576020 1.190395 -6.799498
v 2.376020 1.608509 -2.821408
v 2.376020 1.190395 -6.799498
v 2.576020 1.409605 -2.800503
v 2.576020 0.991491 -6.778591
v 2.376020 1.409605 -2.800503
v 2.376020 0.991491 -6.778591
v 2.576000 1.189037 7.337854
v 2.576000 1.669868 2.763054
v 2.376000 1.189037 7.337854
v 2.376000 1.669868 2.763054
v 2.576000 0.990133 7.316948
v 2.576000 1.470963 2.742148
v 2.376000 0.990133 7.316948
v 2.376000 1.470963 2.742148
v 2.576020 1.143641 -6.881411
v 2.576020 -0.150455 -11.711039
v 2.376020 1.143641 -6.881411
v 2.376020 -0.150455 -11.711039
v 2.576020 0.950456 -6.829647
v 2.576020 -0.343639 -11.659277
v 2.376020 0.950456 -6.829647
v 2.376020 -0.343639 -11.659277
vn -0.0000 0.9659 0.2588
vn -1.0000 -0.0000 -0.0000
vn -0.0000 -0.9659 -0.2588
vn 1.0000 -0.0000 -0.0000
vn -0.0000 -0.2588 0.9659
vn -0.0000 0.2588 -0.9659
vn -0.0000 0.9627 0.2705
vn -0.0000 -0.0000 1.0000
vn -0.0000 -0.9627 -0.2705
vn -0.0000 -0.0000 -1.0000
vn -0.0000 -0.9627 0.2705
vn -0.0000 -0.9952 0.0980
vn -0.0000 -1.0000 -0.0000
vn -0.0000 -0.9952 -0.0980
vn -0.0000 0.9627 -0.2705
vn -0.0000 0.9952 -0.0980
vn -0.0000 1.0000 -0.0000
vn -0.0000 0.9952 0.0980
vn -0.0000 0.9945 -0.1045
vn -0.0000 -0.9945 0.1045
vn -0.0000 0.1045 0.9945
vn -0.0000 -0.1045 -0.9945
vn -0.0000 0.9945 0.1045
vn -0.0000 -0.9945 -0.1045
vn -0.0000 -0.1045 0.9945
vn -0.0000 0.1045 -0.9945
vn -0.0000 0.9659 -0.2588
vn -0.0000 -0.9659 0.2588
vn -0.0000 0.2588 0.9659
vn -0.0000 -0.2588 -0.9659
vt 0.625000 0.000000
vt 0.375000 0.250000
vt 0.375000 0.000000
vt 0.625000 0.250000
vt 0.375000 0.500000
vt 0.625000 0.500000
vt 0.375000 0.750000
vt 0.625000 0.750000
vt 0.375000 1.000000
vt 0.125000 0.750000
vt 0.125000 0.500000
vt 0.875000 0.500000
vt 0.875000 0.565739
vt 0.625000 0.565739
vt 1.442034 0.200000
vt 1.442034 0.700000
vt 0.125000 0.590061
vt 1.442034 0.550000
vt 0.625000 0.684261
vt 0.375000 0.600000
vt 0.625000 0.600000
vt 0.375000 0.650000
vt 0.625000 0.650000
vt 0.125000 0.659939
vt 0.125000 0.600000
vt 0.125000 0.650000
vt 1.442034 0.050000
vt 0.625000 0.100000
vt 0.375000 0.100000
vt 0.625000 0.150000
vt 0.375000 0.150000
vt 1.692034 0.200000
vt 0.875000 0.684261
vt 0.875000 0.600000
vt 0.875000 0.650000
vt 0.875000 0.565739
vt 0.625000 0.565739
vt 1.442034 0.200000
vt 1.442034 0.700000
vt 1.442034 0.550000
vt 0.625000 0.684261
vt 0.125000 0.659939
vt 1.442034 0.050000
vt 1.692035 0.200000
vt 0.875000 0.684261
vt 0.625000 1.000000
vt 0.875000 0.750000
vt 1.692034 0.050000
vt 1.692035 0.050000
s 0
g Cube.011_
usemtl 
f 2/1/1 3/2/1 1/3/1
f 4/4/2 7/5/2 3/2/2
f 8/6/3 5/7/3 7/5/3
f 6/8/4 1/9/4 5/7/4
f 7/5/5 1/10/5 3/11/5
f 4/12/6 6/8/6 8/6/6
f 201/3/6 204/4/6 203/2/6
f 203/2/6 208/6/6 207/5/6
f 207/5/6 206/8/6 205/7/6
f 205/7/6 202/46/6 201/9/6
f 203/11/6 205/7/6 201/10/6
f 208/6/6 202/47/6 206/8/6
f 210/1/17 211/2/17 209/3/17
f 212/4/10 215/5/10 211/2/10
f 216/6/13 213/7/13 215/5/13
f 213/7/8 210/46/8 209/9/8
f 211/11/2 213/7/2 209/10/2
f 212/12/4 214/8/4 216/6/4
f 218/1/17 219/2/17 217/3/17
f 220/4/10 223/5/10 219/2/10
f 224/6/13 221/7/13 223/5/13
f 222/8/8 217/9/8 221/7/8
f 219/11/2 221/7/2 217/10/2
f 220/12/4 222/8/4 224/6/4
f 226/1/17 227/2/17 225/3/17
f 228/4/10 231/5/10 227/2/10
f 232/6/13 229/7/13 231/5/13
f 230/8/8 225/9/8 229/7/8
f 227/11/2 229/7/2 225/10/2
f 228/12/4 230/8/4 232/6/4
f 234/1/17 235/2/17 233/3/17
f 236/4/10 239/5/10 235/2/10
f 240/6/13 237/7/13 239/5/13
f 238/8/8 233/9/8 237/7/8
f 235/11/2 237/7/2 233/10/2
f 236/12/4 238/8/4 240/6/4
f 242/1/17 243/2/17 241/3/17
f 244/4/10 247/5/10 243/2/10
f 248/6/13 245/7/13 247/5/13
f 246/8/8 241/9/8 245/7/8
f 243/11/2 245/7/2 241/10/2
f 244/12/4 246/8/4 248/6/4
f 250/1/17 251/2/17 249/3/17
f 252/4/10 255/5/10 251/2/10
f 256/6/13 253/7/13 255/5/13
f 254/8/8 249/9/8 253/7/8
f 251/11/2 253/7/2 249/10/2
f 252/12/4 254/8/4 256/6/4
f 258/1/17 259/2/17 257/3/17
f 260/4/2 263/5/2 259/2/2
f 264/6/13 261/7/13 263/5/13
f 261/7/4 258/46/4 257/9/4
f 263/5/8 257/10/8 259/11/8
f 260/12/10 262/8/10 264/6/10
f 266/1/19 267/2/19 265/3/19
f 268/4/2 271/5/2 267/2/2
f 272/6/20 269/7/20 271/5/20
f 269/7/4 266/46/4 265/9/4
f 271/5/21 265/10/21 267/11/21
f 268/12/22 270/8/22 272/6/22
f 274/1/23 275/2/23 273/3/23
f 276/4/2 279/5/2 275/2/2
f 280/6/24 277/7/24 279/5/24
f 277/7/4 274/46/4 273/9/4
f 279/5/25 273/10/25 275/11/25
f 276/12/26 278/8/26 280/6/26
f 282/1/27 283/2/27 281/3/27
f 284/4/2 287/5/2 283/2/2
f 288/6/28 285/7/28 287/5/28
f 285/7/4 282/46/4 281/9/4
f 287/5/29 281/10/29 283/11/29
f 284/12/30 286/8/30 288/6/30
f 2/1/1 4/4/1 3/2/1
f 4/4/2 8/6/2 7/5/2
f 8/6/3 6/8/3 5/7/3
f 6/8/4 2/46/4 1/9/4
f 7/5/5 5/7/5 1/10/5
f 4/12/6 2/47/6 6/8/6
f 201/3/6 202/1/6 204/4/6
f 203/2/6 204/4/6 208/6/6
f 207/5/6 208/6/6 206/8/6
f 205/7/6 206/8/6 202/46/6
f 203/11/6 207/5/6 205/7/6
f 208/6/6 204/12/6 202/47/6
f 210/1/17 212/4/17 211/2/17
f 212/4/10 216/6/10 215/5/10
f 216/6/13 214/8/13 213/7/13
f 213/7/8 214/8/8 210/46/8
f 211/11/2 215/5/2 213/7/2
f 212/12/4 210/47/4 214/8/4
f 218/1/17 220/4/17 219/2/17
f 220/4/10 224/6/10 223/5/10
f 224/6/13 222/8/13 221/7/13
f 222/8/8 218/46/8 217/9/8
f 219/11/2 223/5/2 221/7/2
f 220/12/4 218/47/4 222/8/4
f 226/1/17 228/4/17 227/2/17
f 228/4/10 232/6/10 231/5/10
f 232/6/13 230/8/13 229/7/13
f 230/8/8 226/46/8 225/9/8
f 227/11/2 231/5/2 229/7/2
f 228/12/4 226/47/4 230/8/4
f 234/1/17 236/4/17 235/2/17
f 236/4/10 240/6/10 239/5/10
f 240/6/13 238/8/13 237/7/13
f 238/8/8 234/46/8 233/9/8
f 235/11/2 239/5/2 237/7/2
f 236/12/4 234/47/4 238/8/4
f 242/1/17 244/4/17 243/2/17
f 244/4/10 248/6/10 247/5/10
f 248/6/13 246/8/13 245/7/13
f 246/8/8 242/46/8 241/9/8
f 243/11/2 247/5/2 245/7/2
f 244/12/4 242/47/4 246/8/4
f 250/1/17 252/4/17 251/2/17
f 252/4/10 256/6/10 255/5/10
f 256/6/13 254/8/13 253/7/13
f 254/8/8 250/46/8 249/9/8
f 251/11/2 255/5/2 253/7/2
f 252/12/4 250/47/4 254/8/4
f 258/1/17 260/4/17 259/2/17
f 260/4/2 264/6/2 263/5/2
f 264/6/13 262/8/13 261/7/13
f 261/7/4 262/8/4 258/46/4
f 263/5/8 261/7/8 257/10/8
f 260/12/10 258/47/10 262/8/10
f 266/1/19 268/4/19 267/2/19
f 268/4/2 272/6/2 271/5/2
f 272/6/20 270/8/20 269/7/20
f 269/7/4 270/8/4 266/46/4
f 271/5/21 269/7/21 265/10/21
f 268/12/22 266/47/22 270/8/22
f 274/1/23 276/4/23 275/2/23
f 276/4/2 280/6/2 279/5/2
f 280/6/24 278/8/24 277/7/24
f 277/7/4 278/8/4 274/46/4
f 279/5/25 277/7/25 273/10/25
f 276/12/26 274/47/26 278/8/26
f 282/1/27 284/4/27 283/2/27
f 284/4/2 288/6/2 287/5/2
f 288/6/28 286/8/28 285/7/28
f 285/7/4 286/8/4 282/46/4
f 287/5/29 285/7/29 281/10/29
f 284/12/30 282/47/30 286/8/30
g Cube.011_Material.001
usemtl Material.001
f 25/13/7 11/8/7 24/14/7
f 11/8/8 16/9/8 12/7/8
f 17/15/2 13/4/2 14/2/2
f 29/16/9 16/10/9 20/17/9
f 29/16/4 11/8/4 12/7/4
f 13/4/10 10/5/10 14/2/10
f 9/6/4 32/18/4 10/5/4
f 21/19/4 31/20/4 32/18/4
f 22/21/4 30/22/4 31/20/4
f 23/23/4 29/16/4 30/22/4
f 10/5/11 17/24/11 14/11/11
f 17/24/12 31/20/12 18/25/12
f 31/20/13 19/26/13 18/25/13
f 19/26/14 29/16/14 20/17/14
f 15/1/2 20/27/2 16/3/2
f 20/27/2 26/28/2 19/29/2
f 19/29/2 27/30/2 18/31/2
f 18/31/2 28/32/2 17/15/2
f 13/12/15 21/19/15 9/6/15
f 28/33/16 22/21/16 21/19/16
f 27/34/17 23/23/17 22/21/17
f 26/35/18 24/14/18 23/23/18
f 49/36/7 35/8/7 48/37/7
f 35/8/8 40/9/8 36/7/8
f 41/38/2 37/4/2 38/2/2
f 44/17/9 36/7/9 40/10/9
f 53/39/4 35/8/4 36/7/4
f 37/4/10 34/5/10 38/2/10
f 33/6/4 56/40/4 34/5/4
f 45/41/4 55/20/4 56/40/4
f 46/21/4 54/22/4 55/20/4
f 47/23/4 53/39/4 54/22/4
f 34/5/11 41/42/11 38/11/11
f 41/42/12 55/20/12 42/25/12
f 55/20/13 43/26/13 42/25/13
f 43/26/14 53/39/14 44/17/14
f 39/1/2 44/43/2 40/3/2
f 44/43/2 50/28/2 43/29/2
f 43/29/2 51/30/2 42/31/2
f 42/31/2 52/44/2 41/38/2
f 37/12/15 45/41/15 33/6/15
f 52/45/16 46/21/16 45/41/16
f 51/34/17 47/23/17 46/21/17
f 50/35/18 48/37/18 47/23/18
f 25/13/7 15/47/7 11/8/7
f 11/8/8 15/46/8 16/9/8
f 17/15/2 28/32/2 13/4/2
f 29/16/9 12/7/9 16/10/9
f 29/16/4 24/14/4 11/8/4
f 13/4/10 9/6/10 10/5/10
f 9/6/4 21/19/4 32/18/4
f 21/19/4 22/21/4 31/20/4
f 22/21/4 23/23/4 30/22/4
f 23/23/4 24/14/4 29/16/4
f 10/5/11 32/18/11 17/24/11
f 17/24/12 32/18/12 31/20/12
f 31/20/13 30/22/13 19/26/13
f 19/26/14 30/22/14 29/16/14
f 15/1/2 25/48/2 20/27/2
f 20/27/2 25/48/2 26/28/2
f 19/29/2 26/28/2 27/30/2
f 18/31/2 27/30/2 28/32/2
f 13/12/15 28/33/15 21/19/15
f 28/33/16 27/34/16 22/21/16
f 27/34/17 26/35/17 23/23/17
f 26/35/18 25/13/18 24/14/18
f 49/36/7 39/47/7 35/8/7
f 35/8/8 39/46/8 40/9/8
f 41/38/2 52/44/2 37/4/2
f 44/17/9 53/39/9 36/7/9
f 53/39/4 48/37/4 35/8/4
f 37/4/10 33/6/10 34/5/10
f 33/6/4 45/41/4 56/40/4
f 45/41/4 46/21/4 55/20/4
f 46/21/4 47/23/4 54/22/4
f 47/23/4 48/37/4 53/39/4
f 34/5/11 56/40/11 41/42/11
f 41/42/12 56/40/12 55/20/12
f 55/20/13 54/22/13 43/26/13
f 43/26/14 54/22/14 53/39/14
f 39/1/2 49/49/2 44/43/2
f 44/43/2 49/49/2 50/28/2
f 43/29/2 50/28/2 51/30/2
f 42/31/2 51/30/2 52/44/2
f 37/12/15 52/45/15 45/41/15
f 52/45/16 51/34/16 46/21/16
f 51/34/17 50/35/17 47/23/17
f 50/35/18 49/36/18 48/37/18
g Cube.011_Material
usemtl Material
f 73/13/7 59/8/7 72/14/7
f 59/8/8 64/9/8 60/7/8
f 65/15/2 61/4/2 62/2/2
f 68/17/9 60/7/9 64/10/9
f 77/16/4 59/8/4 60/7/4
f 61/4/10 58/5/10 62/2/10
f 57/6/4 80/18/4 58/5/4
f 69/19/4 79/20/4 80/18/4
f 70/21/4 78/22/4 79/20/4
f 71/23/4 77/16/4 78/22/4
f 58/5/11 65/24/11 62/11/11
f 80/18/12 66/25/12 65/24/12
f 79/20/13 67/26/13 66/25/13
f 78/22/14 68/17/14 67/26/14
f 63/1/2 68/27/2 64/3/2
f 68/27/2 74/28/2 67/29/2
f 67/29/2 75/30/2 66/31/2
f 66/31/2 76/32/2 65/15/2
f 61/12/15 69/19/15 57/6/15
f 76/33/16 70/21/16 69/19/16
f 75/34/17 71/23/17 70/21/17
f 74/35/18 72/14/18 71/23/18
f 97/36/7 83/8/7 96/37/7
f 83/8/8 88/9/8 84/7/8
f 89/38/2 85/4/2 86/2/2
f 101/39/9 88/10/9 92/17/9
f 101/39/4 83/8/4 84/7/4
f 85/4/10 82/5/10 86/2/10
f 81/6/4 104/40/4 82/5/4
f 93/41/4 103/20/4 104/40/4
f 94/21/4 102/22/4 103/20/4
f 95/23/4 101/39/4 102/22/4
f 82/5/11 89/42/11 86/11/11
f 104/40/12 90/25/12 89/42/12
f 103/20/13 91/26/13 90/25/13
f 102/22/14 92/17/14 91/26/14
f 87/1/2 92/43/2 88/3/2
f 92/43/2 98/28/2 91/29/2
f 91/29/2 99/30/2 90/31/2
f 90/31/2 100/44/2 89/38/2
f 85/12/15 93/41/15 81/6/15
f 100/45/16 94/21/16 93/41/16
f 99/34/17 95/23/17 94/21/17
f 98/35/18 96/37/18 95/23/18
f 121/13/7 107/8/7 120/14/7
f 107/8/8 112/9/8 108/7/8
f 113/15/2 109/4/2 110/2/2
f 116/17/9 108/7/9 112/10/9
f 125/16/4 107/8/4 108/7/4
f 109/4/10 106/5/10 110/2/10
f 105/6/4 128/18/4 106/5/4
f 117/19/4 127/20/4 128/18/4
f 118/21/4 126/22/4 127/20/4
f 119/23/4 125/16/4 126/22/4
f 110/11/11 128/18/11 113/24/11
f 128/18/12 114/25/12 113/24/12
f 127/20/13 115/26/13 114/25/13
f 126/22/14 116/17/14 115/26/14
f 111/1/2 116/27/2 112/3/2
f 116/27/2 122/28/2 115/29/2
f 115/29/2 123/30/2 114/31/2
f 114/31/2 124/32/2 113/15/2
f 109/12/15 117/19/15 105/6/15
f 117/19/16 123/34/16 118/21/16
f 123/34/17 119/23/17 118/21/17
f 122/35/18 120/14/18 119/23/18
f 145/36/7 131/8/7 144/37/7
f 131/8/8 136/9/8 132/7/8
f 137/38/2 133/4/2 134/2/2
f 140/17/9 132/7/9 136/10/9
f 149/39/4 131/8/4 132/7/4
f 133/4/10 130/5/10 134/2/10
f 129/6/4 152/40/4 130/5/4
f 141/41/4 151/20/4 152/40/4
f 142/21/4 150/22/4 151/20/4
f 143/23/4 149/39/4 150/22/4
f 134/11/11 152/40/11 137/42/11
f 152/40/12 138/25/12 137/42/12
f 151/20/13 139/26/13 138/25/13
f 150/22/14 140/17/14 139/26/14
f 135/1/2 140/43/2 136/3/2
f 140/43/2 146/28/2 139/29/2
f 139/29/2 147/30/2 138/31/2
f 138/31/2 148/44/2 137/38/2
f 133/12/15 141/41/15 129/6/15
f 148/45/16 142/21/16 141/41/16
f 142/21/17 146/35/17 143/23/17
f 146/35/18 144/37/18 143/23/18
f 169/13/7 155/8/7 168/14/7
f 155/8/8 160/9/8 156/7/8
f 161/15/2 157/4/2 158/2/2
f 173/16/9 160/10/9 164/17/9
f 173/16/4 155/8/4 156/7/4
f 157/4/10 154/5/10 158/2/10
f 153/6/4 176/18/4 154/5/4
f 165/19/4 175/20/4 176/18/4
f 166/21/4 174/22/4 175/20/4
f 167/23/4 173/16/4 174/22/4
f 154/5/11 161/24/11 158/11/11
f 176/18/12 162/25/12 161/24/12
f 162/25/13 174/22/13 163/26/13
f 163/26/14 173/16/14 164/17/14
f 159/1/2 164/27/2 160/3/2
f 164/27/2 170/28/2 163/29/2
f 163/29/2 171/30/2 162/31/2
f 162/31/2 172/32/2 161/15/2
f 157/12/15 165/19/15 153/6/15
f 172/33/16 166/21/16 165/19/16
f 171/34/17 167/23/17 166/21/17
f 170/35/18 168/14/18 167/23/18
f 193/36/7 179/8/7 192/37/7
f 179/8/8 184/9/8 180/7/8
f 185/38/2 181/4/2 182/2/2
f 188/17/9 180/7/9 184/10/9
f 197/39/4 179/8/4 180/7/4
f 181/4/10 178/5/10 182/2/10
f 177/6/4 200/40/4 178/5/4
f 189/41/4 199/20/4 200/40/4
f 190/21/4 198/22/4 199/20/4
f 191/23/4 197/39/4 198/22/4
f 182/11/11 200/40/11 185/42/11
f 200/40/12 186/25/12 185/42/12
f 199/20/13 187/26/13 186/25/13
f 198/22/14 188/17/14 187/26/14
f 183/1/2 188/43/2 184/3/2
f 188/43/2 194/28/2 187/29/2
f 187/29/2 195/30/2 186/31/2
f 186/31/2 196/44/2 185/38/2
f 181/12/15 189/41/15 177/6/15
f 196/45/16 190/21/16 189/41/16
f 195/34/17 191/23/17 190/21/17
f 194/35/18 192/37/18 191/23/18
f 73/13/7 63/47/7 59/8/7
f 59/8/8 63/46/8 64/9/8
f 65/15/2 76/32/2 61/4/2
f 68/17/9 77/16/9 60/7/9
f 77/16/4 72/14/4 59/8/4
f 61/4/10 57/6/10 58/5/10
f 57/6/4 69/19/4 80/18/4
f 69/19/4 70/21/4 79/20/4
f 70/21/4 71/23/4 78/22/4
f 71/23/4 72/14/4 77/16/4
f 58/5/11 80/18/11 65/24/11
f 80/18/12 79/20/12 66/25/12
f 79/20/13 78/22/13 67/26/13
f 78/22/14 77/16/14 68/17/14
f 63/1/2 73/48/2 68/27/2
f 68/27/2 73/48/2 74/28/2
f 67/29/2 74/28/2 75/30/2
f 66/31/2 75/30/2 76/32/2
f 61/12/15 76/33/15 69/19/15
f 76/33/16 75/34/16 70/21/16
f 75/34/17 74/35/17 71/23/17
f 74/35/18 73/13/18 72/14/18
f 97/36/7 87/47/7 83/8/7
f 83/8/8 87/46/8 88/9/8
f 89/38/2 100/44/2 85/4/2
f 101/39/9 84/7/9 88/10/9
f 101/39/4 96/37/4 83/8/4
f 85/4/10 81/6/10 82/5/10
f 81/6/4 93/41/4 104/40/4
f 93/41/4 94/21/4 103/20/4
f 94/21/4 95/23/4 102/22/4
f 95/23/4 96/37/4 101/39/4
f 82/5/11 104/40/11 89/42/11
f 104/40/12 103/20/12 90/25/12
f 103/20/13 102/22/13 91/26/13
f 102/22/14 101/39/14 92/17/14
f 87/1/2 97/49/2 92/43/2
f 92/43/2 97/49/2 98/28/2
f 91/29/2 98/28/2 99/30/2
f 90/31/2 99/30/2 100/44/2
f 85/12/15 100/45/15 93/41/15
f 100/45/16 99/34/16 94/21/16
f 99/34/17 98/35/17 95/23/17
f 98/35/18 97/36/18 96/37/18
f 121/13/7 111/47/7 107/8/7
f 107/8/8 111/46/8 112/9/8
f 113/15/2 124/32/2 109/4/2
f 116/17/9 125/16/9 108/7/9
f 125/16/4 120/14/4 107/8/4
f 109/4/10 105/6/10 106/5/10
f 105/6/4 117/19/4 128/18/4
f 117/19/4 118/21/4 127/20/4
f 118/21/4 119/23/4 126/22/4
f 119/23/4 120/14/4 125/16/4
f 110/11/11 106/5/11 128/18/11
f 128/18/12 127/20/12 114/25/12
f 127/20/13 126/22/13 115/26/13
f 126/22/14 125/16/14 116/17/14
f 111/1/2 121/48/2 116/27/2
f 116/27/2 121/48/2 122/28/2
f 115/29/2 122/28/2 123/30/2
f 114/31/2 123/30/2 124/32/2
f 109/12/15 124/33/15 117/19/15
f 117/19/16 124/33/16 123/34/16
f 123/34/17 122/35/17 119/23/17
f 122/35/18 121/13/18 120/14/18
f 145/36/7 135/47/7 131/8/7
f 131/8/8 135/46/8 136/9/8
f 137/38/2 148/44/2 133/4/2
f 140/17/9 149/39/9 132/7/9
f 149/39/4 144/37/4 131/8/4
f 133/4/10 129/6/10 130/5/10
f 129/6/4 141/41/4 152/40/4
f 141/41/4 142/21/4 151/20/4
f 142/21/4 143/23/4 150/22/4
f 143/23/4 144/37/4 149/39/4
f 134/11/11 130/5/11 152/40/11
f 152/40/12 151/20/12 138/25/12
f 151/20/13 150/22/13 139/26/13
f 150/22/14 149/39/14 140/17/14
f 135/1/2 145/49/2 140/43/2
f 140/43/2 145/49/2 146/28/2
f 139/29/2 146/28/2 147/30/2
f 138/31/2 147/30/2 148/44/2
f 133/12/15 148/45/15 141/41/15
f 148/45/16 147/34/16 142/21/16
f 142/21/17 147/34/17 146/35/17
f 146/35/18 145/36/18 144/37/18
f 169/13/7 159/47/7 155/8/7
f 155/8/8 159/46/8 160/9/8
f 161/15/2 172/32/2 157/4/2
f 173/16/9 156/7/9 160/10/9
f 173/16/4 168/14/4 155/8/4
f 157/4/10 153/6/10 154/5/10
f 153/6/4 165/19/4 176/18/4
f 165/19/4 166/21/4 175/20/4
f 166/21/4 167/23/4 174/22/4
f 167/23/4 168/14/4 173/16/4
f 154/5/11 176/18/11 161/24/11
f 176/18/12 175/20/12 162/25/12
f 162/25/13 175/20/13 174/22/13
f 163/26/14 174/22/14 173/16/14
f 159/1/2 169/48/2 164/27/2
f 164/27/2 169/48/2 170/28/2
f 163/29/2 170/28/2 171/30/2
f 162/31/2 171/30/2 172/32/2
f 157/12/15 172/33/15 165/19/15
f 172/33/16 171/34/16 166/21/16
f 171/34/17 170/35/17 167/23/17
f 170/35/18 169/13/18 168/14/18
f 193/36/7 183/47/7 179/8/7
f 179/8/8 183/46/8 184/9/8
f 185/38/2 196/44/2 181/4/2
f 188/17/9 197/39/9 180/7/9
f 197/39/4 192/37/4 179/8/4
f 181/4/10 177/6/10 178/5/10
f 177/6/4 189/41/4 200/40/4
f 189/41/4 190/21/4 199/20/4
f 190/21/4 191/23/4 198/22/4
f 191/23/4 192/37/4 197/39/4
f 182/11/11 178/5/11 200/40/11
f 200/40/12 199/20/12 186/25/12
f 199/20/13 198/22/13 187/26/13
f 198/22/14 197/39/14 188/17/14
f 183/1/2 193/49/2 188/43/2
f 188/43/2 193/49/2 194/28/2
f 187/29/2 194/28/2 195/30/2
f 186/31/2 195/30/2 196/44/2
f 181/12/15 196/45/15 189/41/15
f 196/45/16 195/34/16 190/21/16
f 195/34/17 194/35/17 191/23/17
f 194/35/18 193/36/18 192/37/18
