# Blender 4.4.1
# www.blender.org
mtllib north_south_wall.mtl
g Cube.022_Mesh
v -10.006154 6.001159 -36.167248
v -9.896749 39.371944 -36.908760
v -13.719059 5.987332 -36.364311
v -13.473927 39.381035 -36.875309
v -10.057100 6.007442 -37.285053
v -9.871765 39.324383 -37.850010
v -13.658116 5.996373 -37.477901
v -13.412987 39.390072 -37.988918
v -13.110900 39.283104 -36.760944
v -13.110551 38.947746 -36.760952
v -13.057763 39.224712 43.550125
v -13.057414 38.889355 43.550087
v -11.221134 39.280033 -36.613972
v -11.242804 38.925571 -36.497768
v -11.167997 39.221638 43.697102
v -11.167648 38.886280 43.697071
v -10.827851 8.670842 43.814823
v -10.087011 6.423471 43.801872
v -10.894878 8.670591 -37.089005
v -10.154037 6.423221 -37.101959
v -10.669787 8.671394 43.812069
v -9.928947 6.424026 43.799126
v -10.736814 8.671146 -37.091759
v -9.995973 6.423776 -37.104713
v -10.236309 11.947263 43.745018
v -10.791314 8.841588 43.769909
v -10.309992 11.906485 -37.158836
v -10.864996 8.800808 -37.133934
v -10.115377 11.800947 43.743462
v -10.670381 8.695272 43.768364
v -10.189058 11.760166 -37.160393
v -10.744062 8.654495 -37.135490
v -10.167789 11.769728 43.714302
v -11.371166 18.357904 43.750664
v -10.232759 11.746882 -37.114693
v -11.436139 18.335056 -37.078300
v -10.334001 11.978482 43.717735
v -11.537379 18.566658 43.754128
v -10.398973 11.955635 -37.111229
v -11.602350 18.543806 -37.074860
v -12.654896 18.211586 43.594250
v -11.520039 18.212078 43.821980
v -12.702813 18.212151 -37.310051
v -11.567956 18.212645 -37.082306
v -12.665161 18.518589 43.594975
v -11.530306 18.519085 43.822727
v -12.713078 18.519157 -37.309311
v -11.578223 18.519650 -37.081573
v -13.017172 20.541023 43.917767
v -10.932364 20.544857 44.128960
v -13.049091 20.541645 -36.986816
v -10.964285 20.545479 -36.775627
v -13.036301 20.847998 43.918652
v -13.068220 20.848618 -36.985931
v -9.960527 7.989520 2.063737
v -9.960527 7.989520 2.063737
v -9.960527 7.989520 2.063737
v -9.960527 7.989520 2.063737
v -9.960527 7.989520 2.063737
v -9.960527 7.989520 2.063737
v -9.960527 7.989520 2.063737
v -9.960527 7.989520 2.063737
v -11.551593 18.514565 33.999687
v -11.749303 20.731808 34.003178
v -11.550444 18.514570 35.385105
v -11.748157 20.731815 35.388596
v -12.656553 18.510683 34.018932
v -12.854265 20.727924 34.022423
v -12.655406 18.510685 35.404350
v -12.853117 20.727928 35.407837
v -11.621984 18.469749 13.426474
v -11.819695 20.686996 13.429960
v -11.620836 18.469753 14.811890
v -11.818546 20.686998 14.815378
v -12.726946 18.465864 13.445712
v -12.924656 20.683109 13.449200
v -12.725799 18.465870 14.831139
v -12.923510 20.683115 14.834625
v -11.599100 18.414427 -6.618315
v -11.796810 20.631672 -6.614833
v -11.597952 18.414433 -5.232897
v -11.795663 20.631676 -5.229411
v -12.704061 18.410543 -6.599070
v -12.901772 20.627789 -6.595588
v -12.702913 18.410545 -5.213652
v -12.900624 20.627790 -5.210167
v -11.579262 18.541964 -26.769258
v -11.776975 20.759211 -26.765776
v -11.578115 18.541967 -25.383833
v -11.775826 20.759212 -25.380354
v -12.684225 18.538078 -26.750017
v -12.881936 20.755323 -26.746531
v -12.683077 18.538084 -25.364595
v -12.880789 20.755329 -25.361105
v -10.928802 20.846909 44.131664
v -12.132179 27.435085 44.168037
v -10.956699 20.763493 -36.696243
v -12.160078 27.351669 -36.659874
v -11.095014 21.055662 44.135094
v -12.298391 27.643837 44.171486
v -11.122911 20.972244 -36.692802
v -12.326289 27.560417 -36.656418
v -13.240107 27.397289 43.983185
v -12.105250 27.397781 44.210915
v -13.288024 27.397850 -36.921104
v -12.153168 27.398346 -36.693367
v -13.250373 27.704292 43.983910
v -12.115517 27.704784 44.211655
v -13.298290 27.704859 -36.920380
v -12.163434 27.705351 -36.692635
v -12.122861 27.642006 34.101002
v -12.320572 29.859251 34.104496
v -12.121713 27.642010 35.486427
v -12.319426 29.859257 35.489914
v -13.227823 27.638123 34.120247
v -13.425534 29.855368 34.123734
v -13.226675 27.638126 35.505665
v -13.424386 29.855370 35.509159
v -12.134660 27.576927 13.421654
v -12.332372 29.794172 13.425141
v -12.133512 27.576931 14.807074
v -12.331223 29.794174 14.810562
v -13.239621 27.573040 13.440897
v -13.437332 29.790285 13.444380
v -13.238473 27.573046 14.826317
v -13.436186 29.790291 14.829805
v -12.128397 27.526649 -6.498858
v -12.326107 29.743895 -6.495379
v -12.127248 27.526653 -5.113439
v -12.324960 29.743898 -5.109956
v -13.233357 27.522766 -6.479617
v -13.431069 29.740009 -6.476134
v -13.232210 27.522770 -5.094197
v -13.429921 29.740013 -5.090713
v -12.154913 27.669514 -26.471470
v -12.352623 29.886757 -26.467987
v -12.153765 27.669518 -25.086048
v -12.351477 29.886763 -25.082561
v -13.259875 27.665630 -26.452232
v -13.457586 29.882872 -26.448750
v -13.258727 27.665632 -25.066807
v -13.456438 29.882875 -25.063313
v -13.196451 29.773701 43.491547
v -11.111644 29.777534 43.702728
v -13.300716 29.882412 -36.838730
v -11.215911 29.886246 -36.627533
v -13.215579 30.080673 43.492424
v -11.130773 30.084507 43.703636
v -13.319846 30.189386 -36.837837
v -11.235041 30.193220 -36.626640
v -13.150459 39.038910 -36.880039
v -13.551758 6.500426 -36.585342
v -13.083941 39.040047 43.408787
v -13.485239 6.501557 43.703465
v -13.359619 39.038174 -36.876408
v -13.760918 6.499691 -36.581703
v -13.293102 39.039307 43.412434
v -13.694400 6.500824 43.707115
v -9.960394 6.158056 -37.018158
v -9.960044 6.493419 -37.018158
v -9.893876 6.158300 43.270683
v -9.893526 6.493663 43.270649
v -13.883392 6.144269 -36.949844
v -13.860794 6.498503 -36.834396
v -13.816875 6.144510 43.338989
v -13.816527 6.479873 43.338970
v -11.202945 38.921700 -36.476238
v -11.351996 38.921867 -36.473629
v -11.127369 38.952385 43.665459
v -11.276420 38.952553 43.668018
v -11.220204 30.095043 -36.476089
v -11.377415 30.145016 -36.357521
v -11.144629 30.125725 43.665588
v -11.293680 30.125891 43.668167
v -9.939130 6.306649 44.518124
v -9.683836 39.468571 43.644573
v -13.679487 6.095219 44.545311
v -13.249324 39.219200 44.000149
v -9.805044 6.043210 43.366154
v -9.734780 39.474865 42.526783
v -13.737930 6.048553 43.443226
v -13.307769 39.172531 42.898045
vn -0.0531 0.0157 0.9985
vn -0.9985 0.0065 -0.0546
vn 0.0535 -0.0157 -0.9984
vn 0.9989 -0.0063 -0.0456
vn 0.0040 -1.0000 -0.0058
vn 0.0205 0.9985 -0.0499
vn -1.0000 -0.0010 0.0007
vn -0.0775 -0.0002 0.9970
vn 0.9981 -0.0612 -0.0007
vn 0.0731 -0.3147 -0.9464
vn 0.0016 1.0000 0.0007
vn -0.0016 -1.0000 -0.0005
vn -0.0035 1.0000 -0.0000
vn -0.0174 -0.0000 -0.9998
vn 0.9497 0.3131 -0.0008
vn 0.0035 -1.0000 -0.0000
vn -0.9497 -0.3131 0.0008
vn 0.0174 -0.0000 0.9998
vn 0.7708 0.6371 -0.0010
vn -0.0186 -0.0047 -0.9998
vn 0.9844 -0.1759 -0.0008
vn -0.7708 -0.6371 0.0010
vn -0.9844 0.1759 0.0008
vn 0.0185 0.0047 0.9998
vn -0.7823 -0.6229 0.0008
vn -0.0179 0.0023 -0.9998
vn -0.9837 -0.1797 0.0008
vn 0.7823 0.6229 -0.0008
vn 0.9837 0.1797 -0.0008
vn 0.0180 -0.0022 0.9998
vn -0.9994 -0.0334 0.0006
vn 0.1967 0.0089 -0.9804
vn -0.0004 1.0000 -0.0000
vn 0.9994 0.0334 -0.0006
vn 0.0004 -1.0000 -0.0000
vn -0.1967 -0.0090 0.9804
vn -0.9981 -0.0622 0.0004
vn 0.0018 -1.0000 -0.0000
vn -0.0000 -1.0000 -0.0000
vn 0.9960 0.0888 -0.0008
vn -0.9960 -0.0888 0.0008
vn -0.9837 -0.1797 0.0005
vn 0.7823 0.6229 -0.0009
vn 0.9837 0.1797 -0.0005
vn -0.9981 -0.0622 0.0012
vn 0.1008 0.0092 -0.9949
vn -0.0020 1.0000 0.0014
vn 0.9981 0.0622 -0.0012
vn 0.0020 -1.0000 -0.0014
vn -0.1008 -0.0092 0.9949
vn -0.9999 0.0123 0.0008
vn -0.0174 -0.0088 -0.9998
vn 0.9999 -0.0123 -0.0008
vn 0.0173 0.0088 0.9998
vn 1.0000 -0.0010 -0.0008
vn 0.0174 0.0001 0.9998
vn -0.9980 0.0634 0.0008
vn -0.0176 0.3108 -0.9503
vn -0.0035 1.0000 0.0002
vn 0.0011 1.0000 -0.0004
vn 0.0172 -0.0000 0.9999
vn -0.3025 -0.9532 0.0007
vn -0.6019 0.0012 -0.7986
vn 1.0000 -0.0020 -0.0009
vn -1.0000 0.0020 0.0010
vn -0.1615 -0.0195 0.9867
vn 0.1430 0.9897 -0.0038
vn 0.0063 0.0164 0.9998
vn -0.9985 0.0138 0.0524
vn -0.0196 -0.0162 -0.9997
vn 0.9933 0.0008 0.1154
vn 0.0567 -0.9976 0.0392
vn -0.0881 0.9954 -0.0375
vn 0.0094 0.0222 0.9997
vn 0.0389 -0.0172 -0.9991
vn 0.9996 -0.0027 0.0267
vn 0.0035 -1.0000 -0.0079
vn 0.0026 1.0000 0.0083
vn 1.0000 0.0010 -0.0009
vn 0.1395 0.0002 -0.9902
vn -0.0118 -0.9999 -0.0007
vn 0.0186 0.0047 0.9998
vn -0.0180 0.0022 -0.9998
vn 0.0178 -0.0023 0.9998
vn -0.1968 -0.0089 0.9804
vn -0.7823 -0.6229 0.0009
vn -0.1008 -0.0091 0.9949
vn 0.0174 0.0088 0.9998
vn -1.0000 0.0010 0.0006
vn -0.0471 -0.0000 -0.9989
vn 0.0013 1.0000 -0.0000
vn 0.0173 -0.0000 0.9999
vn -0.0011 -1.0000 -0.0002
vn -0.0175 -0.0132 -0.9998
vn -1.0000 0.0029 0.0009
vn 0.1247 0.0049 0.9922
vn 0.8787 0.0534 0.4744
vn -0.2430 0.0024 0.9700
vn 0.0077 0.7953 0.6062
vn -0.1613 -0.0002 0.9869
vn 0.1967 0.2945 0.9352
vn -0.4752 0.0009 0.8799
vn 0.8463 0.2170 0.4866
vn -0.9953 -0.0023 0.0966
vn 0.2163 -0.0142 0.9762
vn -0.4433 -0.0813 0.8927
vn -0.0018 1.0000 -0.0000
vn 0.9981 0.0622 -0.0004
vn 0.0974 0.0255 0.9949
vn -0.1012 -0.0248 -0.9946
vn 0.9989 -0.0089 -0.0456
vn 0.0031 -0.9748 0.2233
vn -0.0689 0.9976 0.0088
vt 0.375000 0.000000
vt 0.625000 0.250000
vt 0.375000 0.250000
vt 0.375000 0.500000
vt 0.625000 0.500000
vt 0.375000 0.750000
vt 0.625000 0.750000
vt 0.375000 1.000000
vt 0.125000 0.500000
vt 0.125000 0.750000
vt 0.875000 0.750000
vt 0.625000 0.000000
vt 0.875000 0.500000
vt 0.625000 1.000000
vt 0.000000 0.000000
s 0
g Cube.022_
usemtl 
f 1/1/1 4/2/1 3/3/1
f 4/2/2 7/4/2 3/3/2
f 8/5/3 5/6/3 7/4/3
f 6/7/4 1/8/4 5/6/4
f 3/9/5 5/6/5 1/10/5
f 8/5/6 2/11/6 6/7/6
f 55/1/39 58/2/39 57/3/39
f 57/3/39 62/5/39 61/4/39
f 61/4/39 60/7/39 59/6/39
f 59/6/39 56/14/39 55/8/39
f 57/9/39 59/6/39 55/10/39
f 62/5/39 56/11/39 60/7/39
f 64/12/40 65/3/40 63/1/40
f 66/2/18 69/4/18 65/3/18
f 69/4/41 68/7/41 67/6/41
f 67/6/14 64/14/14 63/8/14
f 65/9/16 67/6/16 63/10/16
f 66/13/13 68/7/13 70/5/13
f 72/12/40 73/3/40 71/1/40
f 74/2/18 77/4/18 73/3/18
f 77/4/41 76/7/41 75/6/41
f 75/6/14 72/14/14 71/8/14
f 73/9/16 75/6/16 71/10/16
f 74/13/13 76/7/13 78/5/13
f 80/12/40 81/3/40 79/1/40
f 82/2/18 85/4/18 81/3/18
f 85/4/41 84/7/41 83/6/41
f 83/6/14 80/14/14 79/8/14
f 81/9/16 83/6/16 79/10/16
f 82/13/13 84/7/13 86/5/13
f 88/12/40 89/3/40 87/1/40
f 90/2/18 93/4/18 89/3/18
f 93/4/41 92/7/41 91/6/41
f 91/6/14 88/14/14 87/8/14
f 89/9/16 91/6/16 87/10/16
f 90/13/13 92/7/13 94/5/13
f 112/12/40 113/3/40 111/1/40
f 114/2/18 117/4/18 113/3/18
f 117/4/41 116/7/41 115/6/41
f 115/6/14 112/14/14 111/8/14
f 113/9/16 115/6/16 111/10/16
f 114/13/13 116/7/13 118/5/13
f 120/12/40 121/3/40 119/1/40
f 122/2/18 125/4/18 121/3/18
f 125/4/41 124/7/41 123/6/41
f 123/6/14 120/14/14 119/8/14
f 121/9/16 123/6/16 119/10/16
f 122/13/13 124/7/13 126/5/13
f 128/12/40 129/3/40 127/1/40
f 130/2/18 133/4/18 129/3/18
f 133/4/41 132/7/41 131/6/41
f 131/6/14 128/14/14 127/8/14
f 129/9/16 131/6/16 127/10/16
f 130/13/13 132/7/13 134/5/13
f 136/12/40 137/3/40 135/1/40
f 138/2/18 141/4/18 137/3/18
f 141/4/41 140/7/41 139/6/41
f 139/6/14 136/14/14 135/8/14
f 137/9/16 139/6/16 135/10/16
f 138/13/13 140/7/13 142/5/13
f 152/12/51 153/3/51 151/1/51
f 154/2/52 157/4/52 153/3/52
f 157/4/53 156/7/53 155/6/53
f 155/6/54 152/14/54 151/8/54
f 153/9/16 155/6/16 151/10/16
f 154/13/13 156/7/13 158/5/13
f 159/1/55 162/2/55 161/3/55
f 161/3/56 166/5/56 165/4/56
f 165/4/57 164/7/57 163/6/57
f 164/7/58 159/8/58 163/6/58
f 161/9/16 163/6/16 159/10/16
f 162/13/59 164/7/59 166/5/59
f 175/1/68 178/2/68 177/3/68
f 177/3/69 182/5/69 181/4/69
f 182/5/70 179/6/70 181/4/70
f 180/7/71 175/8/71 179/6/71
f 181/4/72 175/10/72 177/9/72
f 178/13/73 180/7/73 182/5/73
f 1/1/74 2/12/74 4/2/74
f 4/2/2 8/5/2 7/4/2
f 8/5/75 6/7/75 5/6/75
f 6/7/76 2/14/76 1/8/76
f 3/9/77 7/4/77 5/6/77
f 8/5/78 4/13/78 2/11/78
f 55/1/39 56/12/39 58/2/39
f 57/3/39 58/2/39 62/5/39
f 61/4/39 62/5/39 60/7/39
f 59/6/39 60/7/39 56/14/39
f 57/9/39 61/4/39 59/6/39
f 62/5/39 58/13/39 56/11/39
f 64/12/40 66/2/40 65/3/40
f 66/2/18 70/5/18 69/4/18
f 69/4/41 70/5/41 68/7/41
f 67/6/14 68/7/14 64/14/14
f 65/9/16 69/4/16 67/6/16
f 66/13/13 64/11/13 68/7/13
f 72/12/40 74/2/40 73/3/40
f 74/2/18 78/5/18 77/4/18
f 77/4/41 78/5/41 76/7/41
f 75/6/14 76/7/14 72/14/14
f 73/9/16 77/4/16 75/6/16
f 74/13/13 72/11/13 76/7/13
f 80/12/40 82/2/40 81/3/40
f 82/2/18 86/5/18 85/4/18
f 85/4/41 86/5/41 84/7/41
f 83/6/14 84/7/14 80/14/14
f 81/9/16 85/4/16 83/6/16
f 82/13/13 80/11/13 84/7/13
f 88/12/40 90/2/40 89/3/40
f 90/2/18 94/5/18 93/4/18
f 93/4/41 94/5/41 92/7/41
f 91/6/14 92/7/14 88/14/14
f 89/9/16 93/4/16 91/6/16
f 90/13/13 88/11/13 92/7/13
f 112/12/40 114/2/40 113/3/40
f 114/2/18 118/5/18 117/4/18
f 117/4/41 118/5/41 116/7/41
f 115/6/14 116/7/14 112/14/14
f 113/9/16 117/4/16 115/6/16
f 114/13/13 112/11/13 116/7/13
f 120/12/40 122/2/40 121/3/40
f 122/2/18 126/5/18 125/4/18
f 125/4/41 126/5/41 124/7/41
f 123/6/14 124/7/14 120/14/14
f 121/9/16 125/4/16 123/6/16
f 122/13/13 120/11/13 124/7/13
f 128/12/40 130/2/40 129/3/40
f 130/2/18 134/5/18 133/4/18
f 133/4/41 134/5/41 132/7/41
f 131/6/14 132/7/14 128/14/14
f 129/9/16 133/4/16 131/6/16
f 130/13/13 128/11/13 132/7/13
f 136/12/40 138/2/40 137/3/40
f 138/2/18 142/5/18 141/4/18
f 141/4/41 142/5/41 140/7/41
f 139/6/14 140/7/14 136/14/14
f 137/9/16 141/4/16 139/6/16
f 138/13/13 136/11/13 140/7/13
f 152/12/51 154/2/51 153/3/51
f 154/2/52 158/5/52 157/4/52
f 157/4/53 158/5/53 156/7/53
f 155/6/88 156/7/88 152/14/88
f 153/9/16 157/4/16 155/6/16
f 154/13/13 152/11/13 156/7/13
f 159/1/55 160/12/55 162/2/55
f 161/3/56 162/2/56 166/5/56
f 165/4/89 166/5/89 164/7/89
f 164/7/90 160/14/90 159/8/90
f 161/9/16 165/4/16 163/6/16
f 162/13/91 160/11/91 164/7/91
f 175/1/109 176/12/109 178/2/109
f 177/3/69 178/2/69 182/5/69
f 182/5/110 180/7/110 179/6/110
f 180/7/111 176/14/111 175/8/111
f 181/4/112 179/6/112 175/10/112
f 178/13/113 176/11/113 180/7/113
g Cube.022_Material.001
usemtl Material.001
f 10/12/7 11/3/7 9/1/7
f 12/2/8 15/4/8 11/3/8
f 15/4/9 14/7/9 13/6/9
f 14/7/10 9/8/10 13/6/10
f 11/9/11 13/6/11 9/10/11
f 12/13/12 14/7/12 16/5/12
f 143/5/45 149/11/45 145/7/45
f 145/7/46 150/8/46 146/6/46
f 150/1/47 147/2/47 148/3/47
f 144/4/48 150/10/48 148/9/48
f 143/5/49 146/6/49 144/4/49
f 148/3/50 143/5/50 144/4/50
f 168/12/60 169/3/60 167/1/60
f 170/2/61 173/4/61 169/3/61
f 173/4/62 172/7/62 171/6/62
f 172/7/63 167/8/63 171/6/63
f 173/4/64 167/10/64 169/9/64
f 170/13/65 172/7/65 174/5/65
f 150/8/66 168/15/66 10/12/66
f 10/12/7 12/2/7 11/3/7
f 12/2/8 16/5/8 15/4/8
f 15/4/79 16/5/79 14/7/79
f 14/7/80 10/14/80 9/8/80
f 11/9/11 15/4/11 13/6/11
f 12/13/81 10/11/81 14/7/81
f 143/5/45 147/13/45 149/11/45
f 145/7/46 149/14/46 150/8/46
f 150/1/47 149/12/47 147/2/47
f 144/4/48 146/6/48 150/10/48
f 143/5/49 145/7/49 146/6/49
f 148/3/87 147/2/87 143/5/87
f 168/12/60 170/2/60 169/3/60
f 170/2/92 174/5/92 173/4/92
f 173/4/93 174/5/93 172/7/93
f 172/7/94 168/14/94 167/8/94
f 173/4/64 171/6/64 167/10/64
f 170/13/95 168/11/95 172/7/95
f 155/6/96 149/11/96 145/7/96
f 172/15/97 146/6/97 150/8/97
f 155/6/98 145/7/98 172/15/98
f 10/12/99 151/8/99 155/6/99
f 168/15/100 9/1/100 10/12/100
f 14/7/101 13/6/101 168/15/101
f 171/6/102 167/8/102 14/7/102
f 155/6/103 172/15/103 150/8/103
f 150/8/104 171/6/104 14/7/104
f 150/8/105 14/7/105 168/15/105
f 10/12/106 155/6/106 150/8/106
g Cube.022_Material
usemtl Material
f 21/13/13 19/7/13 17/5/13
f 20/6/14 23/14/14 24/8/14
f 23/12/15 22/3/15 24/1/15
f 22/9/16 20/6/16 24/10/16
f 18/4/17 19/7/17 20/6/17
f 21/2/18 18/4/18 22/3/18
f 29/13/19 27/7/19 25/5/19
f 28/6/20 31/14/20 32/8/20
f 32/1/21 29/2/21 30/3/21
f 30/9/22 28/6/22 32/10/22
f 25/5/23 28/6/23 26/4/23
f 29/2/24 26/4/24 30/3/24
f 33/5/25 39/11/25 35/7/25
f 36/6/26 39/14/26 40/8/26
f 40/1/27 37/2/27 38/3/27
f 34/4/28 40/10/28 38/9/28
f 33/5/29 36/6/29 34/4/29
f 37/2/30 34/4/30 38/3/30
f 41/5/31 47/11/31 43/7/31
f 43/7/32 48/8/32 44/6/32
f 48/1/33 45/2/33 46/3/33
f 42/4/34 48/10/34 46/9/34
f 41/5/35 44/6/35 42/4/35
f 46/3/36 41/5/36 42/4/36
f 49/5/37 54/11/37 51/7/37
f 101/14/26 98/6/26 97/7/26
f 49/5/38 52/6/38 50/4/38
f 102/1/42 99/2/42 100/3/42
f 96/4/43 102/10/43 100/9/43
f 95/5/44 98/6/44 96/4/44
f 103/5/31 109/11/31 105/7/31
f 105/7/32 110/8/32 106/6/32
f 110/1/33 107/2/33 108/3/33
f 104/4/34 110/10/34 108/9/34
f 103/5/35 106/6/35 104/4/35
f 51/7/67 53/2/67 50/4/67
f 21/13/13 23/11/13 19/7/13
f 20/6/14 19/7/14 23/14/14
f 23/12/15 21/2/15 22/3/15
f 22/9/16 18/4/16 20/6/16
f 18/4/17 17/5/17 19/7/17
f 21/2/18 17/5/18 18/4/18
f 29/13/19 31/11/19 27/7/19
f 28/6/20 27/7/20 31/14/20
f 32/1/21 31/12/21 29/2/21
f 30/9/22 26/4/22 28/6/22
f 25/5/23 27/7/23 28/6/23
f 29/2/82 25/5/82 26/4/82
f 33/5/25 37/13/25 39/11/25
f 36/6/83 35/7/83 39/14/83
f 40/1/27 39/12/27 37/2/27
f 34/4/28 36/6/28 40/10/28
f 33/5/29 35/7/29 36/6/29
f 37/2/84 33/5/84 34/4/84
f 41/5/31 45/13/31 47/11/31
f 43/7/32 47/14/32 48/8/32
f 48/1/33 47/12/33 45/2/33
f 42/4/34 44/6/34 48/10/34
f 41/5/35 43/7/35 44/6/35
f 46/3/85 45/2/85 41/5/85
f 49/5/37 53/13/37 54/11/37
f 97/7/86 95/5/86 99/13/86
f 101/14/83 102/8/83 98/6/83
f 97/7/86 99/13/86 101/14/86
f 49/5/38 51/7/38 52/6/38
f 102/1/42 101/12/42 99/2/42
f 96/4/43 98/6/43 102/10/43
f 95/5/44 97/7/44 98/6/44
f 103/5/31 107/13/31 109/11/31
f 105/7/32 109/14/32 110/8/32
f 110/1/33 109/12/33 107/2/33
f 104/4/34 106/6/34 110/10/34
f 103/5/35 105/7/35 106/6/35
f 50/4/107 52/6/107 51/7/107
f 51/7/108 54/12/108 53/2/108
