# Blender 4.4.3
# www.blender.org
mtllib BigTable.mtl
g Cube.006_Mesh
v 3.556662 0.002689 0.610960
v 3.570145 1.995862 0.657314
v 3.570145 -0.004138 0.565831
v 3.570145 1.995862 0.565831
v 3.638036 -0.004138 0.632905
v 3.692677 1.990356 0.693499
v 3.652999 0.005235 0.557279
v 3.730263 1.959368 0.562651
v 3.737604 -0.052998 4.815795
v 3.783958 1.940175 4.802312
v 3.692475 -0.059825 4.802312
v 3.692475 1.940175 4.802312
v 3.759549 -0.059825 4.734422
v 3.820142 1.934669 4.679781
v 3.683922 -0.050453 4.719458
v 3.689295 1.903681 4.642195
v 5.209495 -0.064497 4.671342
v 5.255849 1.928676 4.657859
v 5.164365 -0.071324 4.657859
v 5.164365 1.928676 4.657859
v 5.231440 -0.071324 4.589968
v 5.292033 1.923170 4.535327
v 5.155813 -0.061952 4.575005
v 5.161186 1.892182 4.497741
v 5.323450 -0.059318 0.695216
v 5.369804 1.933856 0.681734
v 5.278320 -0.066144 0.681734
v 5.278320 1.933856 0.681734
v 5.345395 -0.066144 0.613843
v 5.405988 1.928349 0.559202
v 5.269768 -0.056772 0.598879
v 5.275141 1.897361 0.521616
v 3.090449 1.917754 6.005839
v 3.090449 2.095942 6.005839
v 3.090449 1.917754 -0.769883
v 3.090449 2.095942 -0.769883
v 5.955511 1.917754 6.005839
v 5.955511 2.095942 6.005839
v 5.955511 1.917754 -0.769883
v 5.955511 2.095942 -0.769883
vn -0.9582 -0.0000 -0.2863
vn -0.1027 -0.0000 -0.9947
vn 0.9811 -0.0393 0.1893
vn -0.2619 -0.0207 0.9649
vn -0.1139 -0.9868 0.1153
vn 0.1032 0.9741 -0.2011
vn -0.2863 -0.0000 0.9582
vn -0.9947 -0.0000 0.1027
vn 0.1893 -0.0393 -0.9811
vn 0.9649 -0.0207 0.2619
vn 0.1153 -0.9868 0.1139
vn -0.1658 0.9622 -0.2160
vn -1.0000 -0.0000 -0.0000
vn -0.0000 -0.0000 -1.0000
vn 1.0000 -0.0000 -0.0000
vn -0.0000 -0.0000 1.0000
vn -0.0000 -1.0000 -0.0000
vn -0.0000 1.0000 -0.0000
vn -1.0000 0.0068 -0.0000
vn -0.0191 0.0035 -0.9998
vn 0.9583 -0.0349 0.2835
vn -0.2840 -0.0213 0.9586
vn 0.1013 -0.9895 -0.1026
vn 0.2222 0.9750 -0.0000
vn -0.0000 0.0068 1.0000
vn -0.9998 0.0035 0.0191
vn 0.2835 -0.0349 -0.9583
vn 0.9586 -0.0213 0.2840
vn -0.1026 -0.9895 -0.1013
vn -0.0000 0.9990 -0.0449
vt 0.375000 0.000000
vt 0.625000 0.250000
vt 0.375000 0.250000
vt 0.375000 0.500000
vt 0.625000 0.500000
vt 0.375000 0.750000
vt 0.625000 1.000000
vt 0.375000 1.000000
vt 0.125000 0.500000
vt 0.125000 0.750000
vt 0.875000 0.750000
vt 0.625000 0.750000
vt 0.875000 0.500000
vt 0.625000 0.000000
s 0
g off
g Cube.006_NORMAL
usemtl NORMAL
f 1/1/1 4/2/1 3/3/1
f 4/2/2 7/4/2 3/3/2
f 8/5/3 5/6/3 7/4/3
f 5/6/4 2/7/4 1/8/4
f 3/9/5 5/6/5 1/10/5
f 8/5/6 2/11/6 6/12/6
f 9/1/7 12/2/7 11/3/7
f 12/2/8 15/4/8 11/3/8
f 16/5/9 13/6/9 15/4/9
f 13/6/10 10/7/10 9/8/10
f 11/9/11 13/6/11 9/10/11
f 12/13/12 14/12/12 16/5/12
f 17/1/7 20/2/7 19/3/7
f 20/2/8 23/4/8 19/3/8
f 24/5/9 21/6/9 23/4/9
f 21/6/10 18/7/10 17/8/10
f 19/9/11 21/6/11 17/10/11
f 20/13/12 22/12/12 24/5/12
f 25/1/7 28/2/7 27/3/7
f 28/2/8 31/4/8 27/3/8
f 32/5/9 29/6/9 31/4/9
f 29/6/10 26/7/10 25/8/10
f 27/9/11 29/6/11 25/10/11
f 28/13/12 30/12/12 32/5/12
f 1/1/19 2/14/19 4/2/19
f 4/2/20 8/5/20 7/4/20
f 8/5/21 6/12/21 5/6/21
f 5/6/22 6/12/22 2/7/22
f 3/9/23 7/4/23 5/6/23
f 8/5/24 4/13/24 2/11/24
f 9/1/25 10/14/25 12/2/25
f 12/2/26 16/5/26 15/4/26
f 16/5/27 14/12/27 13/6/27
f 13/6/28 14/12/28 10/7/28
f 11/9/29 15/4/29 13/6/29
f 12/13/30 10/11/30 14/12/30
f 17/1/25 18/14/25 20/2/25
f 20/2/26 24/5/26 23/4/26
f 24/5/27 22/12/27 21/6/27
f 21/6/28 22/12/28 18/7/28
f 19/9/29 23/4/29 21/6/29
f 20/13/30 18/11/30 22/12/30
f 25/1/25 26/14/25 28/2/25
f 28/2/26 32/5/26 31/4/26
f 32/5/27 30/12/27 29/6/27
f 29/6/28 30/12/28 26/7/28
f 27/9/29 31/4/29 29/6/29
f 28/13/30 26/11/30 30/12/30
g Cube.006_Material.002
usemtl Material.002
f 34/14/13 35/3/13 33/1/13
f 36/2/14 39/4/14 35/3/14
f 40/5/15 37/6/15 39/4/15
f 38/12/16 33/8/16 37/6/16
f 39/4/17 33/10/17 35/9/17
f 36/13/18 38/12/18 40/5/18
f 34/14/13 36/2/13 35/3/13
f 36/2/14 40/5/14 39/4/14
f 40/5/15 38/12/15 37/6/15
f 38/12/16 34/7/16 33/8/16
f 39/4/17 37/6/17 33/10/17
f 36/13/18 34/11/18 38/12/18
