# Blender 4.4.3
# www.blender.org
mtllib divider.mtl
g Cube.002_Mesh
v -1.549339 -0.388182 0.598989
v -1.549339 4.717873 0.598989
v -1.549339 -0.388182 -5.436910
v -1.549339 4.717873 -5.436910
v -1.719429 -0.388182 0.598989
v -1.719429 4.717873 0.598989
v -1.719429 -0.388182 -5.436910
v -1.719429 4.717873 -5.436910
v -1.786674 -0.427645 0.605141
v -1.786674 4.678409 0.605141
v -1.786674 -0.427645 -5.430758
v -1.786674 4.678409 -5.430758
v -1.868666 -0.427645 0.605141
v -1.868666 4.678409 0.605141
v -1.868666 -0.427645 -5.430758
v -1.868666 4.678409 -5.430758
v -1.475516 -0.439323 0.641904
v -1.475516 4.666731 0.641904
v -1.475516 -0.439323 -5.393995
v -1.475516 4.666731 -5.393995
v -1.557508 -0.439323 0.641904
v -1.557508 4.666731 0.641904
v -1.557508 -0.439323 -5.393995
v -1.557508 4.666731 -5.393995
vn 1.0000 -0.0000 -0.0000
vn -0.0000 -0.0000 -1.0000
vn -1.0000 -0.0000 -0.0000
vn -0.0000 -0.0000 1.0000
vn -0.0000 -1.0000 -0.0000
vn -0.0000 1.0000 -0.0000
vt 0.625000 0.000000
vt 0.375000 0.250000
vt 0.375000 0.000000
vt 0.625000 0.250000
vt 0.375000 0.500000
vt 0.625000 0.500000
vt 0.375000 0.750000
vt 0.625000 0.750000
vt 0.375000 1.000000
vt 0.125000 0.750000
vt 0.125000 0.500000
vt 0.875000 0.500000
vt 1.000000 0.000000
vt 0.000000 1.000000
vt 0.000000 0.000000
vt 0.625000 1.000000
vt 0.875000 0.750000
vt 1.000000 1.000000
s 0
g off
g Cube.002_NORMAL
usemtl NORMAL
f 2/1/1 1/3/1 3/2/1
f 4/4/2 3/2/2 7/5/2
f 8/6/3 7/5/3 5/7/3
f 6/8/4 5/7/4 1/9/4
f 7/5/5 3/11/5 1/10/5
f 4/12/6 8/6/6 6/8/6
f 2/1/1 3/2/1 4/4/1
f 4/4/2 7/5/2 8/6/2
f 8/6/3 5/7/3 6/8/3
f 6/8/4 1/9/4 2/16/4
f 7/5/5 1/10/5 5/7/5
f 4/12/6 6/8/6 2/17/6
g Cube.002_dividerText
usemtl dividerText
f 10/13/1 9/15/1 11/14/1
f 12/13/2 11/15/2 15/14/2
f 16/13/3 15/15/3 13/14/3
f 14/13/4 13/15/4 9/14/4
f 15/13/5 11/15/5 9/14/5
f 12/13/6 16/15/6 14/14/6
f 18/13/1 17/15/1 19/14/1
f 20/13/2 19/15/2 23/14/2
f 24/13/3 23/15/3 21/14/3
f 22/13/4 21/15/4 17/14/4
f 23/13/5 19/15/5 17/14/5
f 20/13/6 24/15/6 22/14/6
f 10/13/1 11/14/1 12/18/1
f 12/13/2 15/14/2 16/18/2
f 16/13/3 13/14/3 14/18/3
f 14/13/4 9/14/4 10/18/4
f 15/13/5 9/14/5 13/18/5
f 12/13/6 14/14/6 10/18/6
f 18/13/1 19/14/1 20/18/1
f 20/13/2 23/14/2 24/18/2
f 24/13/3 21/14/3 22/18/3
f 22/13/4 17/14/4 18/18/4
f 23/13/5 17/14/5 21/18/5
f 20/13/6 22/14/6 18/18/6
