# Blender 4.4.3
# www.blender.org
mtllib drone.mtl
g Cube.004_Mesh
v 0.345854 0.002114 4.496221
v 0.345854 1.059189 4.445395
v -0.693376 0.002114 4.496221
v -0.693376 1.059189 4.445395
v 0.900000 -0.440000 0.200000
v 0.900000 1.476100 0.200000
v -1.100000 -0.440000 0.200001
v -1.100000 1.476100 0.200000
v -0.107891 0.778572 -6.463458
v 0.267485 0.050360 -5.661043
v -0.107891 0.778572 -6.463458
v -0.384231 0.050360 -5.661042
v 0.893968 0.993740 -3.791804
v 0.893968 -0.440255 -3.791804
v -1.099714 0.993740 -3.791804
v -1.099714 -0.440255 -3.791804
v 0.345854 1.057886 4.454698
v 0.345854 0.000810 4.505524
v -0.693376 1.057886 4.454698
v -0.693376 0.000810 4.505524
v -0.095169 1.023288 6.185539
v -0.095170 0.061101 6.185539
v -0.280114 1.023288 6.185539
v -0.280114 0.061101 6.185539
v -1.100000 -0.150000 -0.100000
v -1.100000 0.150000 -0.100000
v -6.615010 0.224051 -0.325856
v -6.615010 0.298215 -0.325856
v -1.100000 -0.150000 -3.100000
v -1.100000 0.150000 -3.100000
v -6.615010 0.224051 -2.775580
v -6.615010 0.298215 -2.775580
v -1.100000 1.000000 -3.800000
v -1.100000 -0.442432 -3.800000
v 0.900000 1.000000 -3.800000
v 0.900000 -0.442432 -3.800000
v -1.100000 1.000000 0.200000
v -1.100000 -0.442432 0.200000
v 0.900000 1.000000 0.200000
v 0.900000 -0.442432 0.200000
v -1.098116 0.987700 0.188923
v -1.073864 1.492301 0.183166
v -1.098116 0.987700 -2.798116
v -0.866411 1.492301 -2.566411
v 0.898116 0.987700 -2.798116
v 0.666411 1.492301 -2.566411
v 0.898116 0.987700 0.188923
v 0.879466 1.492301 0.183165
v 0.362970 0.450647 4.274632
v 0.362970 0.580284 4.274632
v 2.746137 0.612284 4.372230
v 2.746137 0.644332 4.372230
v 0.050452 0.450647 5.571003
v 0.050452 0.580285 5.571003
v 2.746137 0.612284 5.430814
v 2.746137 0.644332 5.430814
v 0.900000 -0.150000 -3.150000
v 0.900000 0.150000 -3.150000
v 6.415010 0.224051 -2.924144
v 6.415010 0.298216 -2.924144
v 0.900000 -0.150000 -0.150000
v 0.900000 0.150000 -0.150000
v 6.415010 0.224051 -0.474420
v 6.415010 0.298216 -0.474420
v -0.399729 0.481119 5.571018
v -0.399729 0.610757 5.571018
v -3.078006 0.642756 5.473421
v -3.078006 0.674804 5.473421
v -0.694840 0.481119 4.274647
v -0.694840 0.610757 4.274647
v -3.078006 0.642756 4.414837
v -3.078006 0.674804 4.414837
v -0.258960 0.481119 5.889036
v -0.258960 0.610757 5.889036
v -3.078006 0.642756 5.854678
v -3.078006 0.674804 5.854678
v -0.440763 0.481120 5.432664
v -0.440763 0.610757 5.432664
v -3.078006 0.642756 5.482017
v -3.078006 0.674804 5.482017
v 0.094426 0.481119 5.420963
v 0.094426 0.610757 5.420963
v 2.745600 0.642756 5.455321
v 2.745600 0.674804 5.455321
v -0.025155 0.481120 5.877334
v -0.025155 0.610757 5.877334
v 2.745600 0.642756 5.827982
v 2.745600 0.674804 5.827982
v -0.095920 0.986917 5.598086
v -0.230389 1.010381 5.598086
v -0.218635 2.256066 5.607786
v -0.263636 2.256066 5.607786
v -0.095920 1.035322 6.054458
v -0.225557 1.035322 6.054458
v -0.218635 2.256066 5.980448
v -0.250684 2.256066 5.980448
v -0.065447 1.003895 4.451756
v -0.195084 1.027885 4.451756
v -0.227084 2.256604 4.549354
v -0.259132 2.256604 4.549354
v -0.133881 1.006859 5.748127
v -0.195085 0.764959 5.746518
v -0.227084 2.256604 5.607938
v -0.259132 2.256604 5.606328
vn -0.0000 0.0480 0.9988
vn -0.9956 -0.0000 0.0942
vn -0.0000 -0.0000 -1.0000
vn 0.9918 -0.0000 0.1279
vn -0.0000 -0.9947 0.1024
vn -0.0000 0.9952 0.0977
vn -0.0000 1.0000 -0.0000
vn -0.9378 -0.0255 -0.3461
vn -0.0000 -0.0000 1.0000
vn 0.9304 0.0874 -0.3559
vn -0.0000 -0.9672 -0.2539
vn -0.0000 -0.0480 -0.9988
vn -0.9727 -0.0000 0.2322
vn 0.9690 -0.0000 0.2469
vn -0.0000 0.9998 0.0200
vn -0.0000 -0.9994 0.0359
vn -0.0409 -0.0000 0.9992
vn -1.0000 -0.0000 -0.0000
vn -0.0587 -0.0000 -0.9983
vn 1.0000 -0.0000 -0.0000
vn -0.0677 -0.9977 -0.0000
vn 0.0269 0.9996 -0.0000
vn -0.0000 -1.0000 -0.0000
vn -0.9088 0.4173 -0.0000
vn -0.0000 0.4173 -0.9088
vn 0.9088 0.4173 -0.0000
vn -0.0000 0.0114 0.9999
vn 0.0409 -0.0000 -0.9992
vn 0.0519 -0.0000 0.9987
vn -0.9722 -0.0000 -0.2344
vn 0.0677 -0.9977 -0.0000
vn -0.0241 0.9997 -0.0058
vn 0.0587 -0.0000 0.9983
vn -0.0269 0.9996 -0.0000
vn -0.0364 -0.0000 0.9993
vn 0.9751 -0.0000 -0.2220
vn -0.0607 -0.9981 0.0138
vn -0.0122 -0.0000 0.9999
vn -0.0187 -0.0000 -0.9998
vn 0.9290 -0.0000 -0.3701
vn -0.0575 -0.9981 0.0229
vn 0.0243 0.9997 -0.0000
vn 0.0130 -0.0000 -0.9999
vn 0.0178 -0.0000 0.9998
vn -0.9673 -0.0000 -0.2535
vn 0.0609 -0.9981 -0.0000
vn -0.0232 0.9997 -0.0061
vn 0.0014 0.0078 -1.0000
vn -0.0000 0.0605 0.9982
vn -0.1710 -0.9798 0.1039
vn 0.9953 0.0963 -0.0102
vn -0.9992 -0.0185 0.0347
vn 0.0147 0.0796 -0.9967
vn -0.0499 0.1077 0.9929
vn -0.1820 -0.9833 -0.0074
vn 0.9909 0.1238 0.0520
vn -0.9990 -0.0437 -0.0089
vn -0.9954 0.0046 0.0958
vn 0.9915 0.0063 0.1300
vn -0.0000 -0.7405 -0.6720
vn -0.9339 -0.0000 -0.3575
vn 0.9482 -0.0000 -0.3178
vn -0.0000 0.9968 -0.0803
vn -0.9711 0.0115 0.2385
vn 0.9673 0.0122 0.2535
vn -0.9961 0.0470 -0.0752
vn 0.9964 0.0359 -0.0772
vn 0.0606 -0.9981 0.0146
vn 0.0241 0.9997 -0.0055
vn -0.0612 -0.9981 -0.0000
vn 0.0228 0.9997 -0.0091
vn 0.0585 -0.9982 0.0153
vn -0.0242 0.9997 -0.0000
vn -0.0000 0.0078 -1.0000
vn -0.0000 -0.9985 0.0546
vn 0.9950 0.1000 -0.0000
vn -0.9996 -0.0268 0.0120
vn -0.0000 0.0792 -0.9969
vn -0.3210 0.0749 0.9441
vn 0.9683 -0.2447 -0.0497
vn 0.9972 0.0744 -0.0000
vn -0.9986 -0.0521 -0.0000
vt 0.625000 0.000000
vt 0.375000 0.250000
vt 0.375000 0.000000
vt 0.625000 0.500000
vt 0.375000 0.500000
vt 0.625000 0.750000
vt 0.375000 0.750000
vt 0.375000 1.000000
vt 0.125000 0.750000
vt 0.125000 0.500000
vt 0.875000 0.750000
vt 0.625000 0.250000
vt 0.625000 1.000000
vt 0.301357 1.012660
vt 0.875000 0.500000
vt 1.000000 0.500000
vt 0.750000 1.000000
vt 0.750000 0.500000
vt 0.500000 1.000000
vt 0.500000 0.500000
vt 0.250000 0.490000
vt 0.250000 0.010000
vt 0.490000 0.250000
vt 0.250000 0.500000
vt 0.000000 1.000000
vt 0.000000 0.500000
vt 0.990000 0.250000
vt 0.510000 0.250000
vt 0.750000 0.490000
vt 0.671434 -0.035808
vt 0.625000 0.998021
vt 0.875604 0.782000
vt 0.625000 0.748021
vt 1.000000 1.000000
vt 0.010000 0.250000
vt 0.250000 1.000000
vt 0.750000 0.010000
s 0
g Cube.004_Material.001
usemtl Material.001
f 2/1/1 3/2/1 1/3/1
f 3/2/2 8/4/2 7/5/2
f 7/5/3 6/6/3 5/7/3
f 6/6/4 1/8/4 5/7/4
f 7/5/5 1/9/5 3/10/5
f 8/4/6 2/11/6 6/6/6
f 9/2/7 12/12/7 11/2/7
f 12/12/8 15/5/8 11/2/8
f 16/4/9 13/7/9 15/5/9
f 13/7/10 10/13/10 9/14/10
f 11/10/7 13/7/7 9/10/7
f 12/15/11 14/6/11 16/4/11
f 17/3/12 20/12/12 19/2/12
f 19/2/13 24/4/13 23/5/13
f 24/4/9 21/7/9 23/5/9
f 22/6/14 17/8/14 21/7/14
f 19/10/15 21/7/15 17/9/15
f 20/15/16 22/6/16 24/4/16
f 2/1/1 4/12/1 3/2/1
f 3/2/58 4/12/58 8/4/58
f 7/5/3 8/4/3 6/6/3
f 6/6/59 2/13/59 1/8/59
f 7/5/5 5/7/5 1/9/5
f 8/4/6 4/15/6 2/11/6
f 9/2/60 10/1/60 12/12/60
f 12/12/61 16/4/61 15/5/61
f 16/4/9 14/6/9 13/7/9
f 13/7/62 14/6/62 10/13/62
f 11/10/63 15/5/63 13/7/63
f 12/15/11 10/11/11 14/6/11
f 17/3/12 18/1/12 20/12/12
f 19/2/64 20/12/64 24/4/64
f 24/4/9 22/6/9 21/7/9
f 22/6/65 18/13/65 17/8/65
f 19/10/15 23/5/15 21/7/15
f 20/15/16 18/11/16 22/6/16
g Cube.004_Material.003
usemtl Material.003
f 26/1/17 27/2/17 25/3/17
f 28/12/18 31/5/18 27/2/18
f 31/5/19 30/6/19 29/7/19
f 29/7/20 26/13/20 25/8/20
f 31/5/21 25/9/21 27/10/21
f 32/4/22 26/11/22 30/6/22
f 50/1/28 51/2/28 49/3/28
f 52/12/20 55/5/20 51/2/20
f 55/5/29 54/6/29 53/7/29
f 54/6/30 49/8/30 53/7/30
f 55/5/31 49/9/31 51/10/31
f 56/4/32 50/11/32 54/6/32
f 58/1/28 59/2/28 57/3/28
f 60/12/20 63/5/20 59/2/20
f 63/5/33 62/6/33 61/7/33
f 62/6/18 57/8/18 61/7/18
f 63/5/31 57/9/31 59/10/31
f 64/4/34 58/11/34 62/6/34
f 66/1/35 67/2/35 65/3/35
f 68/12/18 71/5/18 67/2/18
f 71/5/19 70/6/19 69/7/19
f 69/7/36 66/13/36 65/8/36
f 67/10/37 69/7/37 65/9/37
f 68/15/22 70/6/22 72/4/22
f 98/30/53 99/2/53 97/3/53
f 99/2/7 104/4/7 103/5/7
f 104/4/54 101/7/54 103/5/54
f 101/7/55 98/31/55 97/8/55
f 99/10/56 101/7/56 97/9/56
f 104/4/57 98/32/57 102/33/57
f 26/1/17 28/12/17 27/2/17
f 28/12/18 32/4/18 31/5/18
f 31/5/19 32/4/19 30/6/19
f 29/7/20 30/6/20 26/13/20
f 31/5/21 29/7/21 25/9/21
f 32/4/22 28/15/22 26/11/22
f 50/1/28 52/12/28 51/2/28
f 52/12/20 56/4/20 55/5/20
f 55/5/29 56/4/29 54/6/29
f 54/6/30 50/13/30 49/8/30
f 55/5/68 53/7/68 49/9/68
f 56/4/34 52/15/34 50/11/34
f 58/1/28 60/12/28 59/2/28
f 60/12/20 64/4/20 63/5/20
f 63/5/33 64/4/33 62/6/33
f 62/6/18 58/13/18 57/8/18
f 63/5/31 61/7/31 57/9/31
f 64/4/34 60/15/34 58/11/34
f 66/1/35 68/12/35 67/2/35
f 68/12/18 72/4/18 71/5/18
f 71/5/19 72/4/19 70/6/19
f 69/7/36 70/6/36 66/13/36
f 67/10/21 71/5/21 69/7/21
f 68/15/69 66/11/69 70/6/69
f 98/30/78 100/12/78 99/2/78
f 99/2/7 100/12/7 104/4/7
f 104/4/79 102/33/79 101/7/79
f 101/7/80 102/33/80 98/31/80
f 99/10/81 103/5/81 101/7/81
f 104/4/82 100/15/82 98/32/82
g Cube.004_Material
usemtl Material
f 37/15/7 35/6/7 33/4/7
f 36/7/20 39/13/20 40/8/20
f 39/1/9 38/2/9 40/3/9
f 34/5/23 40/9/23 38/10/23
f 34/5/3 35/6/3 36/7/3
f 37/12/18 34/5/18 38/2/18
f 37/15/7 39/11/7 35/6/7
f 36/7/20 35/6/20 39/13/20
f 39/1/9 37/12/9 38/2/9
f 34/5/23 36/7/23 40/9/23
f 34/5/3 33/4/3 35/6/3
f 37/12/18 33/4/18 34/5/18
g Cube.004_Material.002
usemtl Material.002
f 41/16/24 44/17/24 43/18/24
f 43/18/25 46/19/25 45/20/25
f 42/21/7 46/22/7 44/23/7
f 46/19/26 47/24/26 45/20/26
f 47/24/27 42/25/27 41/26/27
f 43/27/23 47/28/23 41/29/23
f 41/16/66 42/34/66 44/17/66
f 43/18/25 44/17/25 46/19/25
f 42/21/7 48/35/7 46/22/7
f 46/19/67 48/36/67 47/24/67
f 47/24/27 48/36/27 42/25/27
f 43/27/23 45/37/23 47/28/23
g Cube.004_Material.004
usemtl Material.004
f 74/1/38 75/2/38 73/3/38
f 76/12/18 79/5/18 75/2/18
f 79/5/39 78/6/39 77/7/39
f 77/7/40 74/13/40 73/8/40
f 75/10/41 77/7/41 73/9/41
f 76/15/42 78/6/42 80/4/42
f 82/1/43 83/2/43 81/3/43
f 84/12/20 87/5/20 83/2/20
f 87/5/44 86/6/44 85/7/44
f 85/7/45 82/13/45 81/8/45
f 87/5/46 81/9/46 83/10/46
f 88/4/47 82/11/47 86/6/47
f 90/1/48 91/2/48 89/3/48
f 91/2/7 96/4/7 95/5/7
f 95/5/49 94/6/49 93/7/49
f 93/7/50 90/13/50 89/8/50
f 91/10/51 93/7/51 89/9/51
f 92/15/52 94/6/52 96/4/52
f 74/1/38 76/12/38 75/2/38
f 76/12/18 80/4/18 79/5/18
f 79/5/39 80/4/39 78/6/39
f 77/7/40 78/6/40 74/13/40
f 75/10/70 79/5/70 77/7/70
f 76/15/71 74/11/71 78/6/71
f 82/1/43 84/12/43 83/2/43
f 84/12/20 88/4/20 87/5/20
f 87/5/44 88/4/44 86/6/44
f 85/7/45 86/6/45 82/13/45
f 87/5/72 85/7/72 81/9/72
f 88/4/73 84/15/73 82/11/73
f 90/1/74 92/12/74 91/2/74
f 91/2/7 92/12/7 96/4/7
f 95/5/49 96/4/49 94/6/49
f 93/7/75 94/6/75 90/13/75
f 91/10/76 95/5/76 93/7/76
f 92/15/77 90/11/77 94/6/77
