# Blender 4.4.0
# www.blender.org
mtllib glassPanel.mtl
g Plane_Mesh
v -0.000000 1.109005 1.109005
v 0.000000 -1.109005 1.109005
v -0.000000 1.109005 -1.109005
v 0.000000 -1.109005 -1.109005
v 0.064574 0.982078 -0.982078
v 0.064574 0.982078 0.982078
v 0.064574 -0.982078 0.982078
v 0.064574 -0.982078 -0.982078
v 0.064574 1.109005 -1.109005
v 0.064574 1.109005 1.109005
v 0.064574 -1.109005 1.109005
v 0.064574 -1.109005 -1.109005
v 0.030938 0.982078 -0.982078
v 0.030938 0.982078 0.982078
v 0.030938 -0.982078 0.982078
v 0.030938 -0.982078 -0.982078
vn -1.0000 -0.0000 -0.0000
vn -0.0000 1.0000 -0.0000
vn -0.0000 -1.0000 -0.0000
vn -0.0000 -0.0000 -1.0000
vn -0.0000 -0.0000 1.0000
vn 1.0000 -0.0000 -0.0000
vt 0.000000 1.000000
vt 1.000000 0.000000
vt 0.000000 0.000000
vt 0.942774 0.942774
vt 0.942774 0.057226
vt 1.000000 1.000000
vt 0.057226 0.942774
vt 0.057226 0.057226
s 0
g Plane_Glass.001
usemtl Glass.001
f 3/1/1 2/2/1 1/3/1
f 8/4/2 15/5/2 7/5/2
f 4/6/3 11/2/3 2/2/3
f 1/3/2 9/1/2 3/1/2
f 3/1/4 12/6/4 4/6/4
f 2/2/5 10/3/5 1/3/5
f 15/5/6 13/7/6 14/8/6
f 6/8/3 13/7/3 5/7/3
f 5/7/5 16/4/5 8/4/5
f 3/1/1 4/6/1 2/2/1
f 8/4/2 16/4/2 15/5/2
f 4/6/3 12/6/3 11/2/3
f 1/3/2 10/3/2 9/1/2
f 3/1/4 9/1/4 12/6/4
f 2/2/5 11/2/5 10/3/5
f 15/5/6 16/4/6 13/7/6
f 6/8/3 14/8/3 13/7/3
f 5/7/5 13/7/5 16/4/5
g Plane_Frame.001
usemtl Frame.001
f 5/7/6 10/3/6 6/8/6
f 6/8/6 11/2/6 7/5/6
f 7/5/6 12/6/6 8/4/6
f 8/4/6 9/1/6 5/7/6
f 7/5/4 14/8/4 6/8/4
f 5/7/6 9/1/6 10/3/6
f 6/8/6 10/3/6 11/2/6
f 7/5/6 11/2/6 12/6/6
f 8/4/6 12/6/6 9/1/6
f 7/5/4 15/5/4 14/8/4
