# Blender 4.4.3
# www.blender.org
mtllib potPlant.mtl
g Plane_Mesh
v -2.918536 1.840620 -4.616201
v -2.896823 2.349679 -4.480036
v -2.562113 2.172231 -4.672865
v -2.955305 1.829116 -4.489009
v -2.738627 2.002871 -4.645591
v -2.919414 2.093008 -4.548267
v -2.928395 2.089114 -4.484519
v -2.756642 1.992970 -4.583971
v -2.839104 2.036338 -4.564520
v -2.987085 1.845989 -4.537738
v -2.965372 2.355048 -4.401573
v -2.630662 2.177600 -4.594402
v -3.023854 1.834486 -4.410546
v -2.807176 2.008240 -4.567128
v -2.987963 2.098378 -4.469804
v -2.996944 2.094483 -4.406055
v -2.825191 1.998339 -4.505507
v -2.907654 2.041708 -4.486057
v -2.867303 2.197637 -4.291600
v -2.731138 1.688578 -4.269887
v -2.923967 1.866026 -3.935178
v -2.740111 2.209140 -4.328370
v -2.896693 2.035386 -4.111692
v -2.799368 1.945248 -4.292479
v -2.735620 1.949143 -4.301460
v -2.835072 2.045287 -4.129706
v -2.815622 2.001919 -4.212169
v -2.968715 2.078966 -4.296809
v -2.832550 1.569907 -4.275096
v -3.025379 1.747355 -3.940387
v -2.841523 2.090470 -4.333579
v -2.998105 1.916715 -4.116900
v -2.900781 1.826578 -4.297687
v -2.837032 1.830472 -4.306669
v -2.936484 1.926616 -4.134915
v -2.917034 1.883248 -4.217378
v -2.903835 2.280190 -4.330173
v -2.767670 1.771131 -4.308460
v -2.960499 1.948579 -3.973750
v -2.776643 2.291693 -4.366942
v -2.933225 2.117939 -4.150264
v -2.835901 2.027802 -4.331051
v -2.772152 2.031696 -4.340032
v -2.871604 2.127840 -4.168279
v -2.852154 2.084471 -4.250741
v -3.016724 2.295668 -4.379191
v -2.880559 1.786609 -4.357479
v -3.073388 1.964057 -4.022769
v -2.889531 2.307171 -4.415961
v -3.046113 2.133417 -4.199283
v -2.948789 2.043280 -4.380069
v -2.885041 2.047174 -4.389051
v -2.984493 2.143318 -4.217297
v -2.965043 2.099950 -4.299760
v -3.110247 2.156359 -4.375247
v -2.974082 1.647300 -4.353534
v -3.166911 1.824748 -4.018825
v -2.983054 2.167863 -4.412017
v -3.139636 1.994108 -4.195339
v -3.042312 1.903971 -4.376125
v -2.978564 1.907865 -4.385107
v -3.078016 2.004009 -4.213353
v -3.058566 1.960641 -4.295816
v -2.875338 1.749868 -4.746178
v -2.853625 2.258927 -4.610013
v -2.518915 2.081479 -4.802842
v -2.912108 1.738365 -4.618986
v -2.695430 1.912119 -4.775568
v -2.876216 2.002257 -4.678244
v -2.885198 1.998362 -4.614495
v -2.713444 1.902218 -4.713947
v -2.795907 1.945587 -4.694497
v -2.802018 1.787635 -4.552903
v -2.780304 2.296694 -4.416738
v -2.445595 2.119246 -4.609567
v -2.838787 1.776132 -4.425711
v -2.622109 1.949886 -4.582293
v -2.802896 2.040024 -4.484969
v -2.811877 2.036129 -4.421220
v -2.640123 1.939985 -4.520672
v -2.722586 1.983353 -4.501222
v -2.754704 1.821633 -4.571631
v -2.732991 2.330693 -4.435466
v -2.398281 2.153244 -4.628295
v -2.791473 1.810130 -4.444438
v -2.574795 1.983885 -4.601020
v -2.755582 2.074022 -4.503696
v -2.764563 2.070127 -4.439948
v -2.592810 1.973983 -4.539400
v -2.675272 2.017352 -4.519950
v -2.727476 2.202797 -4.238011
v -2.591311 1.693738 -4.216298
v -2.784140 1.871186 -3.881588
v -2.600284 2.214300 -4.274780
v -2.756866 2.040546 -4.058102
v -2.659542 1.950409 -4.238889
v -2.595793 1.954303 -4.247870
v -2.695245 2.050447 -4.076117
v -2.675795 2.007079 -4.158579
v -2.623844 2.244074 -4.209261
v -2.487679 1.735015 -4.187548
v -2.680508 1.912463 -3.852839
v -2.496652 2.255578 -4.246031
v -2.653234 2.081823 -4.029353
v -2.555910 1.991686 -4.210139
v -2.492161 1.995580 -4.219121
v -2.591613 2.091724 -4.047367
v -2.572163 2.048356 -4.129830
v -2.790097 1.630892 -4.421056
v -2.768383 2.139951 -4.284891
v -2.433674 1.962503 -4.477720
v -2.826866 1.619388 -4.293864
v -2.610188 1.793143 -4.450446
v -2.790974 1.883280 -4.353122
v -2.799956 1.879386 -4.289373
v -2.628202 1.783242 -4.388825
v -2.710665 1.826610 -4.369375
v -3.048898 0.026274 -3.979378
v -3.048898 1.764385 -3.979378
v -3.048898 0.026274 -4.835648
v -3.048898 1.764385 -4.835648
v -2.467404 0.026274 -3.979378
v -2.467404 1.764385 -3.979378
v -2.467404 0.026274 -4.835648
v -2.467404 1.764385 -4.835648
vn 0.3091 0.1678 0.9361
vn -0.6967 0.7118 -0.0893
vn -0.4897 0.4029 -0.7732
vn 0.5892 0.7972 0.1317
vn 0.9361 -0.1678 0.3091
vn -0.0893 -0.7118 -0.6967
vn -0.7732 -0.4029 -0.4897
vn 0.1317 -0.7972 0.5892
vn -1.0000 -0.0000 -0.0000
vn -0.0000 -0.0000 -1.0000
vn 1.0000 -0.0000 -0.0000
vn -0.0000 -0.0000 1.0000
vn -0.0000 -1.0000 -0.0000
vn -0.0000 1.0000 -0.0000
vn 0.6388 -0.0793 0.7653
vn 0.4976 0.8218 0.2775
vn -0.0120 0.2599 -0.9656
vn 0.9839 -0.1215 0.1312
vn 0.7653 0.0793 0.6388
vn 0.2775 -0.8218 0.4976
vn -0.9656 -0.2599 -0.0120
vn 0.1312 0.1215 0.9839
vn -0.9656 -0.2599 -0.0121
vt 0.500000 0.500000
vt 1.000000 1.000000
vt 0.500000 1.000000
vt 0.000000 0.500000
vt 0.000000 1.000000
vt 0.000000 0.000000
vt 0.500000 0.000000
vt 1.000000 0.500000
vt 0.625000 0.000000
vt 0.375000 0.250000
vt 0.375000 0.000000
vt 0.625000 0.250000
vt 0.375000 0.500000
vt 0.625000 0.500000
vt 0.375000 0.750000
vt 0.625000 1.000000
vt 0.375000 1.000000
vt 0.125000 0.500000
vt 0.125000 0.750000
vt 0.875000 0.500000
vt 0.625000 0.750000
vt 1.000000 0.000000
vt 0.875000 0.750000
s 0
g Plane_trees
usemtl trees
f 9/1/1 4/2/1 8/3/1
f 5/4/2 8/3/2 3/5/2
f 1/6/3 9/1/3 5/4/3
f 6/7/4 7/8/4 9/1/4
f 18/1/1 13/2/1 17/3/1
f 14/4/2 17/3/2 12/5/2
f 10/6/3 18/1/3 14/4/3
f 15/7/4 16/8/4 18/1/4
f 27/1/5 22/2/5 26/3/5
f 23/4/6 26/3/6 21/5/6
f 19/6/7 27/1/7 23/4/7
f 24/7/8 25/8/8 27/1/8
f 36/1/5 31/2/5 35/3/5
f 32/4/6 35/3/6 30/5/6
f 28/6/7 36/1/7 32/4/7
f 33/7/8 34/8/8 36/1/8
f 45/1/5 40/2/5 44/3/5
f 41/4/6 44/3/6 39/5/6
f 37/6/7 45/1/7 41/4/7
f 42/7/8 43/8/8 45/1/8
f 54/1/5 49/2/5 53/3/5
f 50/4/6 53/3/6 48/5/6
f 46/6/7 54/1/7 50/4/7
f 51/7/8 52/8/8 54/1/8
f 63/1/5 58/2/5 62/3/5
f 59/4/6 62/3/6 57/5/6
f 55/6/7 63/1/7 59/4/7
f 60/7/8 61/8/8 63/1/8
f 72/1/1 67/2/1 71/3/1
f 68/4/2 71/3/2 66/5/2
f 64/6/3 72/1/3 68/4/3
f 69/7/4 70/8/4 72/1/4
f 81/1/1 76/2/1 80/3/1
f 77/4/2 80/3/2 75/5/2
f 73/6/3 81/1/3 77/4/3
f 78/7/4 79/8/4 81/1/4
f 90/1/1 85/2/1 89/3/1
f 86/4/2 89/3/2 84/5/2
f 82/6/3 90/1/3 86/4/3
f 87/7/4 88/8/4 90/1/4
f 99/1/5 94/2/5 98/3/5
f 95/4/6 98/3/6 93/5/6
f 91/6/7 99/1/7 95/4/7
f 96/7/8 97/8/8 99/1/8
f 108/1/5 103/2/5 107/3/5
f 104/4/6 107/3/6 102/5/6
f 100/6/7 108/1/7 104/4/7
f 105/7/8 106/8/8 108/1/8
f 117/1/1 112/2/1 116/3/1
f 113/4/2 116/3/2 111/5/2
f 109/6/3 117/1/3 113/4/3
f 114/7/4 115/8/4 117/1/4
f 9/1/15 7/8/15 4/2/15
f 5/4/16 9/1/16 8/3/16
f 1/6/17 6/7/17 9/1/17
f 6/7/18 2/22/18 7/8/18
f 18/1/15 16/8/15 13/2/15
f 14/4/16 18/1/16 17/3/16
f 10/6/17 15/7/17 18/1/17
f 15/7/18 11/22/18 16/8/18
f 27/1/19 25/8/19 22/2/19
f 23/4/20 27/1/20 26/3/20
f 19/6/21 24/7/21 27/1/21
f 24/7/22 20/22/22 25/8/22
f 36/1/19 34/8/19 31/2/19
f 32/4/20 36/1/20 35/3/20
f 28/6/23 33/7/23 36/1/23
f 33/7/22 29/22/22 34/8/22
f 45/1/19 43/8/19 40/2/19
f 41/4/20 45/1/20 44/3/20
f 37/6/23 42/7/23 45/1/23
f 42/7/22 38/22/22 43/8/22
f 54/1/19 52/8/19 49/2/19
f 50/4/20 54/1/20 53/3/20
f 46/6/23 51/7/23 54/1/23
f 51/7/22 47/22/22 52/8/22
f 63/1/19 61/8/19 58/2/19
f 59/4/20 63/1/20 62/3/20
f 55/6/21 60/7/21 63/1/21
f 60/7/22 56/22/22 61/8/22
f 72/1/15 70/8/15 67/2/15
f 68/4/16 72/1/16 71/3/16
f 64/6/17 69/7/17 72/1/17
f 69/7/18 65/22/18 70/8/18
f 81/1/15 79/8/15 76/2/15
f 77/4/16 81/1/16 80/3/16
f 73/6/17 78/7/17 81/1/17
f 78/7/18 74/22/18 79/8/18
f 90/1/15 88/8/15 85/2/15
f 86/4/16 90/1/16 89/3/16
f 82/6/17 87/7/17 90/1/17
f 87/7/18 83/22/18 88/8/18
f 99/1/19 97/8/19 94/2/19
f 95/4/20 99/1/20 98/3/20
f 91/6/23 96/7/23 99/1/23
f 96/7/22 92/22/22 97/8/22
f 108/1/19 106/8/19 103/2/19
f 104/4/20 108/1/20 107/3/20
f 100/6/23 105/7/23 108/1/23
f 105/7/22 101/22/22 106/8/22
f 117/1/15 115/8/15 112/2/15
f 113/4/16 117/1/16 116/3/16
f 109/6/17 114/7/17 117/1/17
f 114/7/18 110/22/18 115/8/18
g Plane_Material.001
usemtl Material.001
f 119/9/9 120/10/9 118/11/9
f 121/12/10 124/13/10 120/10/10
f 125/14/11 122/15/11 124/13/11
f 122/15/12 119/16/12 118/17/12
f 120/18/13 122/15/13 118/19/13
f 121/20/14 123/21/14 125/14/14
f 119/9/9 121/12/9 120/10/9
f 121/12/10 125/14/10 124/13/10
f 125/14/11 123/21/11 122/15/11
f 122/15/12 123/21/12 119/16/12
f 120/18/13 124/13/13 122/15/13
f 121/20/14 119/23/14 123/21/14
