# Blender 4.4.3
# www.blender.org
mtllib potPlant.mtl
g Cube.007_Mesh
v -3.048898 0.026275 -3.979378
v -3.048898 1.764385 -3.979378
v -3.048898 0.026275 -4.835647
v -3.048898 1.764385 -4.835647
v -2.467403 0.026275 -3.979378
v -2.467403 1.764385 -3.979378
v -2.467403 0.026275 -4.835647
v -2.467403 1.764385 -4.835647
v -2.918536 1.840620 -4.616201
v -2.896823 2.349679 -4.480036
v -2.562113 2.172231 -4.672865
v -2.955305 1.829116 -4.489009
v -2.738627 2.002871 -4.645591
v -2.919414 2.093008 -4.548267
v -2.928395 2.089114 -4.484518
v -2.756642 1.992970 -4.583970
v -2.839104 2.036338 -4.564520
v -2.987085 1.845989 -4.537738
v -2.965372 2.355048 -4.401573
v -2.630662 2.177600 -4.594402
v -3.023854 1.834486 -4.410546
v -2.807176 2.008240 -4.567128
v -2.987963 2.098377 -4.469804
v -2.996944 2.094483 -4.406055
v -2.825191 1.998339 -4.505507
v -2.907653 2.041708 -4.486057
v -2.867303 2.197637 -4.291600
v -2.731138 1.688578 -4.269887
v -2.923967 1.866026 -3.935178
v -2.740110 2.209140 -4.328370
v -2.896692 2.035386 -4.111691
v -2.799368 1.945248 -4.292478
v -2.735620 1.949143 -4.301460
v -2.835072 2.045287 -4.129706
v -2.815622 2.001919 -4.212169
v -2.968715 2.078966 -4.296809
v -2.832550 1.569907 -4.275096
v -3.025379 1.747355 -3.940386
v -2.841523 2.090470 -4.333579
v -2.998105 1.916715 -4.116900
v -2.900781 1.826578 -4.297687
v -2.837032 1.830472 -4.306668
v -2.936484 1.926616 -4.134915
v -2.917034 1.883248 -4.217378
v -2.903835 2.280190 -4.330173
v -2.767670 1.771131 -4.308459
v -2.960499 1.948579 -3.973750
v -2.776643 2.291693 -4.366942
v -2.933225 2.117939 -4.150264
v -2.835901 2.027801 -4.331050
v -2.772152 2.031696 -4.340032
v -2.871604 2.127840 -4.168278
v -2.852154 2.084471 -4.250741
v -3.016724 2.295668 -4.379191
v -2.880559 1.786609 -4.357478
v -3.073388 1.964057 -4.022768
v -2.889531 2.307171 -4.415961
v -3.046113 2.133417 -4.199283
v -2.948789 2.043280 -4.380069
v -2.885041 2.047174 -4.389050
v -2.984493 2.143318 -4.217297
v -2.965043 2.099950 -4.299760
v -3.110247 2.156359 -4.375247
v -2.974082 1.647300 -4.353534
v -3.166911 1.824748 -4.018825
v -2.983054 2.167863 -4.412017
v -3.139636 1.994108 -4.195339
v -3.042312 1.903971 -4.376125
v -2.978564 1.907865 -4.385107
v -3.078016 2.004009 -4.213353
v -3.058566 1.960641 -4.295815
v -2.875338 1.749868 -4.746178
v -2.853625 2.258927 -4.610013
v -2.518915 2.081479 -4.802842
v -2.912108 1.738365 -4.618986
v -2.695430 1.912119 -4.775568
v -2.876216 2.002257 -4.678243
v -2.885197 1.998362 -4.614495
v -2.713444 1.902218 -4.713947
v -2.795907 1.945586 -4.694497
v -2.802018 1.787635 -4.552903
v -2.780304 2.296694 -4.416738
v -2.445595 2.119246 -4.609567
v -2.838787 1.776132 -4.425710
v -2.622109 1.949886 -4.582292
v -2.802896 2.040024 -4.484968
v -2.811877 2.036129 -4.421220
v -2.640123 1.939985 -4.520672
v -2.722586 1.983353 -4.501222
v -2.754704 1.821633 -4.571630
v -2.732991 2.330693 -4.435466
v -2.398281 2.153244 -4.628294
v -2.791473 1.810130 -4.444438
v -2.574795 1.983884 -4.601020
v -2.755582 2.074022 -4.503696
v -2.764563 2.070127 -4.439948
v -2.592810 1.973983 -4.539400
v -2.675272 2.017352 -4.519949
v -2.727476 2.202797 -4.238010
v -2.591311 1.693738 -4.216297
v -2.784140 1.871186 -3.881588
v -2.600284 2.214300 -4.274780
v -2.756866 2.040546 -4.058102
v -2.659541 1.950409 -4.238888
v -2.595793 1.954303 -4.247870
v -2.695245 2.050447 -4.076116
v -2.675795 2.007079 -4.158579
v -2.623844 2.244074 -4.209261
v -2.487679 1.735015 -4.187548
v -2.680508 1.912463 -3.852839
v -2.496652 2.255578 -4.246031
v -2.653234 2.081823 -4.029353
v -2.555909 1.991686 -4.210139
v -2.492161 1.995580 -4.219121
v -2.591613 2.091724 -4.047367
v -2.572163 2.048356 -4.129830
v -2.790097 1.630892 -4.421056
v -2.768383 2.139951 -4.284891
v -2.433674 1.962503 -4.477720
v -2.826866 1.619388 -4.293863
v -2.610188 1.793143 -4.450446
v -2.790974 1.883280 -4.353121
v -2.799956 1.879386 -4.289373
v -2.628202 1.783242 -4.388825
v -2.710665 1.826610 -4.369375
vn -1.0000 -0.0000 -0.0000
vn -0.0000 -0.0000 -1.0000
vn 1.0000 -0.0000 -0.0000
vn -0.0000 -0.0000 1.0000
vn -0.0000 -1.0000 -0.0000
vn -0.0000 1.0000 -0.0000
vn 0.3091 0.1678 0.9361
vn -0.6967 0.7118 -0.0893
vn -0.4897 0.4029 -0.7732
vn 0.5892 0.7972 0.1317
vn 0.9361 -0.1678 0.3091
vn -0.0893 -0.7118 -0.6967
vn -0.7732 -0.4029 -0.4897
vn 0.1317 -0.7972 0.5892
vn 0.6388 -0.0793 0.7653
vn 0.4976 0.8218 0.2775
vn -0.0120 0.2599 -0.9656
vn 0.9839 -0.1215 0.1312
vn 0.7653 0.0793 0.6388
vn 0.2775 -0.8218 0.4976
vn -0.9656 -0.2599 -0.0120
vn 0.1312 0.1215 0.9839
vn -0.9656 -0.2599 -0.0121
vt 0.625000 0.000000
vt 0.375000 0.250000
vt 0.375000 0.000000
vt 0.625000 0.250000
vt 0.375000 0.500000
vt 0.625000 0.500000
vt 0.375000 0.750000
vt 0.625000 0.750000
vt 0.375000 1.000000
vt 0.125000 0.750000
vt 0.125000 0.500000
vt 0.875000 0.500000
vt 0.500000 0.500000
vt 1.000000 1.000000
vt 0.500000 1.000000
vt 0.000000 0.500000
vt 0.000000 1.000000
vt 0.000000 0.000000
vt 0.500000 0.000000
vt 1.000000 0.500000
vt 0.625000 1.000000
vt 0.875000 0.750000
vt 1.000000 0.000000
s 0
g off
g Cube.007_Material.001
usemtl Material.001
f 2/1/1 3/2/1 1/3/1
f 4/4/2 7/5/2 3/2/2
f 8/6/3 5/7/3 7/5/3
f 6/8/4 1/9/4 5/7/4
f 7/5/5 1/10/5 3/11/5
f 4/12/6 6/8/6 8/6/6
f 2/1/1 4/4/1 3/2/1
f 4/4/2 8/6/2 7/5/2
f 8/6/3 6/8/3 5/7/3
f 6/8/4 2/21/4 1/9/4
f 7/5/5 5/7/5 1/10/5
f 4/12/6 2/22/6 6/8/6
g Cube.007_trees
usemtl trees
f 17/13/7 12/14/7 16/15/7
f 13/16/8 16/15/8 11/17/8
f 9/18/9 17/13/9 13/16/9
f 14/19/10 15/20/10 17/13/10
f 26/13/7 21/14/7 25/15/7
f 22/16/8 25/15/8 20/17/8
f 18/18/9 26/13/9 22/16/9
f 23/19/10 24/20/10 26/13/10
f 35/13/11 30/14/11 34/15/11
f 31/16/12 34/15/12 29/17/12
f 27/18/13 35/13/13 31/16/13
f 32/19/14 33/20/14 35/13/14
f 44/13/11 39/14/11 43/15/11
f 40/16/12 43/15/12 38/17/12
f 36/18/13 44/13/13 40/16/13
f 41/19/14 42/20/14 44/13/14
f 53/13/11 48/14/11 52/15/11
f 49/16/12 52/15/12 47/17/12
f 45/18/13 53/13/13 49/16/13
f 50/19/14 51/20/14 53/13/14
f 62/13/11 57/14/11 61/15/11
f 58/16/12 61/15/12 56/17/12
f 54/18/13 62/13/13 58/16/13
f 59/19/14 60/20/14 62/13/14
f 71/13/11 66/14/11 70/15/11
f 67/16/12 70/15/12 65/17/12
f 63/18/13 71/13/13 67/16/13
f 68/19/14 69/20/14 71/13/14
f 80/13/7 75/14/7 79/15/7
f 76/16/8 79/15/8 74/17/8
f 72/18/9 80/13/9 76/16/9
f 77/19/10 78/20/10 80/13/10
f 89/13/7 84/14/7 88/15/7
f 85/16/8 88/15/8 83/17/8
f 81/18/9 89/13/9 85/16/9
f 86/19/10 87/20/10 89/13/10
f 98/13/7 93/14/7 97/15/7
f 94/16/8 97/15/8 92/17/8
f 90/18/9 98/13/9 94/16/9
f 95/19/10 96/20/10 98/13/10
f 107/13/11 102/14/11 106/15/11
f 103/16/12 106/15/12 101/17/12
f 99/18/13 107/13/13 103/16/13
f 104/19/14 105/20/14 107/13/14
f 116/13/11 111/14/11 115/15/11
f 112/16/12 115/15/12 110/17/12
f 108/18/13 116/13/13 112/16/13
f 113/19/14 114/20/14 116/13/14
f 125/13/7 120/14/7 124/15/7
f 121/16/8 124/15/8 119/17/8
f 117/18/9 125/13/9 121/16/9
f 122/19/10 123/20/10 125/13/10
f 17/13/15 15/20/15 12/14/15
f 13/16/16 17/13/16 16/15/16
f 9/18/17 14/19/17 17/13/17
f 14/19/18 10/23/18 15/20/18
f 26/13/15 24/20/15 21/14/15
f 22/16/16 26/13/16 25/15/16
f 18/18/17 23/19/17 26/13/17
f 23/19/18 19/23/18 24/20/18
f 35/13/19 33/20/19 30/14/19
f 31/16/20 35/13/20 34/15/20
f 27/18/21 32/19/21 35/13/21
f 32/19/22 28/23/22 33/20/22
f 44/13/19 42/20/19 39/14/19
f 40/16/20 44/13/20 43/15/20
f 36/18/23 41/19/23 44/13/23
f 41/19/22 37/23/22 42/20/22
f 53/13/19 51/20/19 48/14/19
f 49/16/20 53/13/20 52/15/20
f 45/18/21 50/19/21 53/13/21
f 50/19/22 46/23/22 51/20/22
f 62/13/19 60/20/19 57/14/19
f 58/16/20 62/13/20 61/15/20
f 54/18/21 59/19/21 62/13/21
f 59/19/22 55/23/22 60/20/22
f 71/13/19 69/20/19 66/14/19
f 67/16/20 71/13/20 70/15/20
f 63/18/21 68/19/21 71/13/21
f 68/19/22 64/23/22 69/20/22
f 80/13/15 78/20/15 75/14/15
f 76/16/16 80/13/16 79/15/16
f 72/18/17 77/19/17 80/13/17
f 77/19/18 73/23/18 78/20/18
f 89/13/15 87/20/15 84/14/15
f 85/16/16 89/13/16 88/15/16
f 81/18/17 86/19/17 89/13/17
f 86/19/18 82/23/18 87/20/18
f 98/13/15 96/20/15 93/14/15
f 94/16/16 98/13/16 97/15/16
f 90/18/17 95/19/17 98/13/17
f 95/19/18 91/23/18 96/20/18
f 107/13/19 105/20/19 102/14/19
f 103/16/20 107/13/20 106/15/20
f 99/18/21 104/19/21 107/13/21
f 104/19/22 100/23/22 105/20/22
f 116/13/19 114/20/19 111/14/19
f 112/16/20 116/13/20 115/15/20
f 108/18/21 113/19/21 116/13/21
f 113/19/22 109/23/22 114/20/22
f 125/13/15 123/20/15 120/14/15
f 121/16/16 125/13/16 124/15/16
f 117/18/17 122/19/17 125/13/17
f 122/19/18 118/23/18 123/20/18
